<svg xmlns="http://www.w3.org/2000/svg" width="1em" height="1em" viewBox="95 90 390 420" fill="currentColor" aria-hidden="false" role="img"><title>Plano Wildcats paw mark</title>
<g id="surface1">
<path style=" stroke:none;fill-rule:evenodd;fill:currentColor" d="M 283.503906 492.152344 C 320.414062 492.140625 362.992188 493.578125 390.179688 474.976562 C 419.34375 455.011719 422.511719 437.226562 412.15625 397.703125 C 405.660156 372.933594 391.191406 338.710938 379.0625 320.058594 C 374.488281 313.03125 372.367188 310.96875 368.289062 303.480469 C 339.527344 250.699219 283.816406 251.34375 250.304688 302.285156 C 234.925781 325.644531 218.730469 340.023438 206.875 369.914062 C 194.632812 400.824219 187.582031 425.082031 205.667969 457.097656 C 213.210938 470.460938 218.144531 475.644531 235.894531 483.152344 C 250.144531 489.191406 267.527344 492.1875 283.503906 492.152344 "/>
<path style=" stroke:none;fill-rule:evenodd;fill:currentColor" d="M 380.835938 110.539062 C 352.933594 118.84375 334.722656 169.921875 334.734375 195.542969 C 334.769531 272.011719 395.453125 281.15625 430.507812 224.15625 C 450.011719 192.433594 456.152344 155.363281 428.964844 128.210938 C 419.839844 119.109375 399.714844 104.929688 380.835938 110.539062 "/>
<path style=" stroke:none;fill-rule:evenodd;fill:currentColor" d="M 242.09375 104.386719 C 228.972656 108.316406 215.238281 123.960938 207.878906 136.125 C 185.863281 172.515625 200.378906 203.824219 226.320312 230.78125 C 240.15625 245.167969 246.792969 252.128906 272.976562 244.8125 C 341.644531 225.621094 321.738281 167.148438 285.210938 124.570312 C 277.839844 115.964844 258.070312 99.605469 242.09375 104.386719 "/>
<path style=" stroke:none;fill-rule:evenodd;fill:currentColor" d="M 114.683594 277.320312 C 114.683594 299.09375 120.503906 309.148438 132.4375 321.015625 C 179.539062 367.886719 240.988281 327.417969 229.339844 275.417969 C 224.132812 252.171875 200.714844 217.601562 169.597656 211.1875 C 132.207031 203.46875 114.683594 247.726562 114.683594 277.320312 "/>
<path style=" stroke:none;fill-rule:evenodd;fill:currentColor" d="M 463.199219 247.359375 C 440.171875 253.300781 402.78125 280.824219 398.597656 302.847656 C 392.480469 335.058594 412.214844 361.253906 439.183594 378.199219 C 472.648438 399.246094 490.492188 350.34375 495.859375 323.835938 C 497.609375 315.175781 502.265625 277.574219 500.027344 268.542969 C 497.105469 256.746094 474.847656 244.351562 463.199219 247.359375 "/>
</g>
</svg>
