<?xml version="1.0" encoding="UTF-8"?>
<svg id="Layer_1" xmlns="http://www.w3.org/2000/svg" version="1.1" viewBox="526 339 226 123">
  <!-- Generator: Adobe Illustrator 30.7.0, SVG Export Plug-In . SVG Version: 2.1.4 Build 114)  -->
  <defs>
    <style>
      .st0 {
        stroke: #fefefe;
        stroke-width: 1.61px;
      }

      .st0, .st1, .st2, .st3 {
        fill: none;
      }

      .st0, .st2 {
        stroke-miterlimit: 10;
      }

      .st4, .st5 {
        fill-rule: evenodd;
      }

      .st4, .st6 {
        fill: #fefefe;
      }

      .st7, .st5 {
        fill: #631529;
      }

      .st1 {
        stroke: #373435;
      }

      .st1, .st3 {
        stroke-linejoin: round;
        stroke-width: .22px;
      }

      .st2 {
        stroke: #fff;
        stroke-width: 1.7px;
      }

      .st3 {
        stroke: #631529;
      }

      .st8 {
        fill: #49302e;
      }
    </style>
  </defs>
  <path class="st8" d="M648.03,419.15c.92-.65,1.38-1,1.87-1.32,25.24-16.29,50.47-32.59,75.73-48.85.87-.56,1.93-.89,2.95-1.12,3.96-.89,4.86-2.89,2.7-6.24-.69-1.08-1.49-2.1-2.07-3.23-1.32-2.53-3.07-2.53-5.01-.88-1.39,1.18-2.44,2.81-3.94,3.78-26.2,16.99-52.45,33.9-78.65,50.88-1.61,1.04-2.73,1.16-4.43.06-26.02-16.9-52.11-33.69-78.15-50.56-1.18-.77-2.22-1.85-3.09-2.97-2.34-2.98-4.67-3-6.68.08-.64.99-1.28,1.99-1.92,2.98-1.95,3.08-1.33,4.7,2.04,5.97,2.16.81,4.34,1.7,6.27,2.93,17.59,11.26,35.12,22.59,52.67,33.92,7.35,4.74,14.69,9.51,22.08,14.31-.31.42-.43.73-.66.87-9.68,6.25-19.33,12.56-29.09,18.68-4.04,2.53-8.52,3.04-13.04,1.22-12.43-4.98-24.85-9.98-37.24-15.05-6.98-2.85-10-1.84-13.41,4.8-.67,1.31-1.31,2.66-1.75,4.06-1.09,3.51.15,6.63,3.5,8.13,12.6,5.65,25.4,10.73,38.97,13.61,6.43,1.36,12.47,1.43,18.38-2.54,13.25-8.89,26.81-17.32,40.14-26.08,2.27-1.49,3.83-1.65,6.2-.09,13.65,9,27.45,17.78,41.16,26.68,3.81,2.47,7.86,3.46,12.36,2.81,15.68-2.26,30.16-8.2,44.46-14.62,2.99-1.34,4.18-4.62,3.15-7.77-.55-1.68-1.32-3.3-2.16-4.85-3.16-5.86-6.28-6.91-12.38-4.43-12.58,5.12-25.17,10.23-37.78,15.28-4.96,1.99-9.67,1.13-14.08-1.68-4.4-2.81-8.78-5.66-13.16-8.49-5.2-3.35-10.4-6.71-15.97-10.3h0Z"/>
  <path class="st2" d="M737.49,440.64c4.53-1.89,5.48-3.97,3.79-7.93-.69-1.62-1.52-3.2-2.46-4.68-2.17-3.39-4.87-3.96-8.81-1.78,2.46,4.74,4.93,9.48,7.48,14.38h0ZM541.24,440.63c2.55-4.9,5.02-9.65,7.49-14.39-3.95-2.18-6.66-1.63-8.82,1.75-.95,1.48-1.76,3.07-2.45,4.69-1.67,3.92-.68,6.12,3.77,7.95h0ZM637.55,414.6c-13.51-8.72-26.97-17.41-40.59-26.21-1.07,1.69-1.98,3.14-2.95,4.67,1.09.74,1.89,1.31,2.71,1.84,10.76,6.95,21.51,13.9,32.27,20.85q4.26,2.75,8.57-1.16h0ZM691,441.98c-8.22.92-10.32.44-17.2-3.99-8.02-5.16-16.03-10.34-24.04-15.52-4.3-2.78-4.49-2.76-8.49,1.19,2.42,1.56,4.78,3.09,7.15,4.62,12.06,7.8,24.1,15.61,36.17,23.39,2.9,1.87,5.98,3.08,9.78,2.44-1.19-4.28-2.29-8.23-3.37-12.13h0ZM584.37,454.15c4.09.51,7.23-.85,10.27-2.81,25.39-16.41,50.8-32.78,76.2-49.18,4.61-2.98,9.21-5.99,13.97-9.09-1.13-1.68-2.1-3.12-3.1-4.6-1.05.67-1.88,1.19-2.71,1.72-24,15.48-48.05,30.87-71.96,46.49-5.94,3.88-11.78,7.2-19.27,5.08-1.18,4.29-2.27,8.24-3.41,12.4h0ZM648.03,419.15c5.57,3.59,10.77,6.94,15.97,10.3,4.39,2.83,8.76,5.68,13.16,8.49,4.41,2.81,9.12,3.67,14.08,1.68,12.61-5.06,25.2-10.16,37.78-15.28,6.1-2.48,9.22-1.43,12.38,4.43.84,1.55,1.61,3.17,2.16,4.85,1.02,3.15-.16,6.43-3.15,7.77-14.3,6.43-28.78,12.36-44.46,14.62-4.5.65-8.55-.34-12.36-2.81-13.71-8.9-27.51-17.68-41.16-26.68-2.37-1.56-3.93-1.4-6.2.09-13.34,8.76-26.9,17.18-40.14,26.08-5.91,3.97-11.95,3.9-18.38,2.54-13.57-2.88-26.37-7.96-38.97-13.61-3.35-1.5-4.59-4.62-3.5-8.13.43-1.4,1.08-2.75,1.75-4.06,3.4-6.65,6.43-7.66,13.41-4.8,12.39,5.06,24.81,10.07,37.24,15.05,4.52,1.81,9,1.31,13.04-1.22,9.76-6.12,19.41-12.43,29.09-18.68.22-.14.34-.45.66-.87-7.4-4.79-14.73-9.56-22.08-14.31-17.54-11.32-35.08-22.66-52.67-33.92-1.93-1.23-4.11-2.12-6.27-2.93-3.37-1.27-3.99-2.89-2.04-5.97.63-1,1.27-1.99,1.92-2.98,2-3.08,4.34-3.06,6.68-.08.88,1.12,1.91,2.2,3.09,2.97,26.04,16.86,52.13,33.66,78.15,50.56,1.71,1.11,2.82.99,4.43-.06,26.2-16.98,52.45-33.89,78.65-50.88,1.5-.97,2.56-2.61,3.94-3.78,1.94-1.64,3.69-1.65,5.01.88.59,1.13,1.38,2.15,2.07,3.23,2.16,3.35,1.26,5.35-2.7,6.24-1.02.23-2.08.56-2.95,1.12-25.26,16.26-50.5,32.56-75.73,48.85-.49.32-.96.67-1.87,1.32h0Z"/>
  <path class="st7" d="M737.49,440.64c4.53-1.89,5.48-3.97,3.79-7.93-.69-1.62-1.52-3.2-2.46-4.68-2.17-3.39-4.87-3.96-8.81-1.78,2.46,4.74,4.93,9.48,7.48,14.38h0ZM541.24,440.63c2.55-4.9,5.02-9.65,7.49-14.39-3.95-2.18-6.66-1.63-8.82,1.75-.95,1.48-1.76,3.07-2.45,4.69-1.67,3.92-.68,6.12,3.77,7.95h0ZM637.55,414.6c-13.51-8.72-26.97-17.41-40.59-26.21-1.07,1.69-1.98,3.14-2.95,4.67,1.09.74,1.89,1.31,2.71,1.84,10.76,6.95,21.51,13.9,32.27,20.85q4.26,2.75,8.57-1.16h0ZM691,441.98c-8.22.92-10.32.44-17.2-3.99-8.02-5.16-16.03-10.34-24.04-15.52-4.3-2.78-4.49-2.76-8.49,1.19,2.42,1.56,4.78,3.09,7.15,4.62,12.06,7.8,24.1,15.61,36.17,23.39,2.9,1.87,5.98,3.08,9.78,2.44-1.19-4.28-2.29-8.23-3.37-12.13h0ZM584.37,454.15c4.09.51,7.23-.85,10.27-2.81,25.39-16.41,50.8-32.78,76.2-49.18,4.61-2.98,9.21-5.99,13.97-9.09-1.13-1.68-2.1-3.12-3.1-4.6-1.05.67-1.88,1.19-2.71,1.72-24,15.48-48.05,30.87-71.96,46.49-5.94,3.88-11.78,7.2-19.27,5.08-1.18,4.29-2.27,8.24-3.41,12.4h0ZM648.03,419.15c5.57,3.59,10.77,6.94,15.97,10.3,4.39,2.83,8.76,5.68,13.16,8.49,4.41,2.81,9.12,3.67,14.08,1.68,12.61-5.06,25.2-10.16,37.78-15.28,6.1-2.48,9.22-1.43,12.38,4.43.84,1.55,1.61,3.17,2.16,4.85,1.02,3.15-.16,6.43-3.15,7.77-14.3,6.43-28.78,12.36-44.46,14.62-4.5.65-8.55-.34-12.36-2.81-13.71-8.9-27.51-17.68-41.16-26.68-2.37-1.56-3.93-1.4-6.2.09-13.34,8.76-26.9,17.18-40.14,26.08-5.91,3.97-11.95,3.9-18.38,2.54-13.57-2.88-26.37-7.96-38.97-13.61-3.35-1.5-4.59-4.62-3.5-8.13.43-1.4,1.08-2.75,1.75-4.06,3.4-6.65,6.43-7.66,13.41-4.8,12.39,5.06,24.81,10.07,37.24,15.05,4.52,1.81,9,1.31,13.04-1.22,9.76-6.12,19.41-12.43,29.09-18.68.22-.14.34-.45.66-.87-7.4-4.79-14.73-9.56-22.08-14.31-17.54-11.32-35.08-22.66-52.67-33.92-1.93-1.23-4.11-2.12-6.27-2.93-3.37-1.27-3.99-2.89-2.04-5.97.63-1,1.27-1.99,1.92-2.98,2-3.08,4.34-3.06,6.68-.08.88,1.12,1.91,2.2,3.09,2.97,26.04,16.86,52.13,33.66,78.15,50.56,1.71,1.11,2.82.99,4.43-.06,26.2-16.98,52.45-33.89,78.65-50.88,1.5-.97,2.56-2.61,3.94-3.78,1.94-1.64,3.69-1.65,5.01.88.59,1.13,1.38,2.15,2.07,3.23,2.16,3.35,1.26,5.35-2.7,6.24-1.02.23-2.08.56-2.95,1.12-25.26,16.26-50.5,32.56-75.73,48.85-.49.32-.96.67-1.87,1.32h0Z"/>
  <path class="st6" d="M584.37,454.15c1.14-4.15,2.23-8.1,3.41-12.4,7.49,2.12,13.33-1.2,19.27-5.08,23.9-15.62,47.96-31.01,71.96-46.49.82-.53,31.17-19.77,32.23-20.44,1,1.48,1.96,2.92,3.1,4.61-4.76,3.1-38.88,24.83-43.49,27.81-25.4,16.39-50.81,32.77-76.2,49.18-3.04,1.96-6.18,3.32-10.27,2.81h0Z"/>
  <path class="st6" d="M691,441.98c1.09,3.9,2.18,7.85,3.37,12.13-3.8.64-6.89-.58-9.78-2.44-12.07-7.78-24.11-15.59-36.17-23.39-2.37-1.53-4.73-3.06-7.15-4.62,4-3.95,4.19-3.97,8.49-1.19,8.01,5.18,16.02,10.36,24.04,15.52,6.88,4.43,8.98,4.92,17.2,3.99h0Z"/>
  <path class="st6" d="M637.55,414.6q-4.3,3.9-8.57,1.16c-10.76-6.95-21.52-13.9-32.27-20.85-.82-.53-28.46-18.3-29.55-19.05.97-1.53,1.89-2.98,2.95-4.67,13.63,8.8,53.92,34.69,67.44,43.41h0Z"/>
  <path class="st6" d="M541.24,440.63c-4.45-1.83-5.45-4.03-3.77-7.95.69-1.62,1.5-3.21,2.45-4.69,2.16-3.37,4.86-3.93,8.82-1.75-2.47,4.74-4.94,9.49-7.49,14.39h0Z"/>
  <path class="st6" d="M737.49,440.64c-2.55-4.9-5.02-9.64-7.48-14.38,3.94-2.19,6.64-1.62,8.81,1.78.95,1.48,1.77,3.06,2.46,4.68,1.69,3.96.74,6.03-3.79,7.93h0Z"/>
  <path class="st0" d="M639.19,454.25c-5.29,0-10.15-3.13-13.33-8.6-.39.42-.84.63-1.34.63-.81,0-1.62-.6-2.22-1.64,0,.05,0,.24,0,.24,0,.33,0,.67-.03.99l-.11.95s-.01.03-.03.04c0,0-.01,0-.02,0,0,0-.02,0-.02,0l-.82-.49c-1.25-.75-2-1.93-2.72-3.07-.6-.95-1.17-1.85-1.99-2.45-.19.3-.12,1.13-.03,2.02.09.85.18,1.72-.02,2.4l-.25.86s-.02.03-.03.03c0,0-.01,0-.02,0,0,0-.02,0-.03,0l-.71-.53c-2.14-1.6-4.52-3.56-5.72-6.75-.39.39-.56,1.12-.77,2.09-.1.5-.21,1.01-.37,1.48l-.33.93s-.02.03-.03.03c0,0,0,0-.01,0-.01,0-.02,0-.03-.01l-.69-.7c-2.65-2.68-5.2-5.87-5.84-11.09-1.55.6-2.19,2.13-2.92,3.9-.28.68-.57,1.38-.93,2.03l-.21.38s-.02.03-.04.03c0,0,0,0,0,0l-.42-.06c-2.31-.34-2.14-3-2-5.13.04-.55.07-1.04.07-1.5-1.75,1.53-2.15,4.48-2.32,7.45l-.09,1.5s-.01.04-.03.04c0,0-.01,0-.02,0-.01,0-.03,0-.04-.02l-.99-1.13c-1.42-1.6-1.64-4.25-1.86-6.81-.1-1.12-.2-2.27-.39-3.3-.12.06-.38.22-.71.59-.56.62-.92,1.39-.88,1.87l.31,3.9s-.01.05-.04.05c0,0,0,0-.01,0-.02,0-.04-.01-.04-.03l-1.49-3.62c-1.7-4.14-1.78-10.79-1.54-15.67-2.35,1.23-3.88,3.29-5.5,5.47h-.05s.04.02.04.02c-.81,1.09-1.65,2.22-2.6,3.23l-.86.92s-.02.01-.04.01c0,0,0,0-.01,0-.02,0-.03-.02-.03-.04l-.2-1.25c-2.41-15.31,3.63-28.35,9.14-36.61-.16-.04-.43-.06-.79-.06-.1,0-.2,0-.3,0,0,0-.24,0-.31,0-.2,0-.46,0-.72-.03l-.66-.08s-.03,0-.03-.02c0-.01-.01-.02,0-.04l.12-.65c.51-2.72,3.53-5.15,6.44-7.51,2.39-1.93,4.87-3.93,4.59-5.22-.12-.58-.94-1.45-4.1-2.27l-.73-.19s-.03-.01-.03-.03c0-.01,0-.03,0-.04l.33-.68c.36-.74.98-1.24,1.9-1.53-1.26-.75-3.01-1.12-5.19-1.12-.35,0-.72,0-1.09.03l-1.97.1s-.04-.01-.05-.03c0-.02,0-.04.02-.05l1.56-1.2c.69-.53,1.02-1.03.9-1.36-.17-.5-1.3-1.04-3.04-1.04-.1,0-.2,0-.3,0,0,0-3.3.11-3.3.11-.02,0-.04-.02-.05-.04,0-.02,0-.05.03-.05l3.04-1.3c3.81-1.63,9.9-3.37,15.59-3.37,3.34,0,6.13.6,8.31,1.78,3-1.76,6.53-3.01,9.95-4.21,1.65-.58,3.35-1.18,4.98-1.84-.07-.06-.17-.13-.28-.2-.51-.34-1.36-.91-.95-2.46l.15-.57s.02-.04.05-.04c0,0,0,0,.01,0l.58.13c.92.21,1.42.83,1.83,1.32.43.53.75.91,1.48.91.1,0,.2,0,.31-.02.21-1.49-1.54-3.57-2.96-5.24l-.03-.04c-.49-.58-.95-1.12-1.31-1.62l-.51-.69s-.01-.03,0-.04c0-.02.02-.03.03-.03l.82-.26c.21-.07.42-.1.63-.1,1.48,0,2.56,1.56,3.71,3.22.99,1.43,2.02,2.91,3.23,3.33.23.07.43.1.61.1.34,0,.52-.13.81-.32.33-.23.74-.51,1.39-.55.09-1.05-.14-1.78-.38-2.56l.04-.03-.05.02c-.16-.51-.32-1.04-.41-1.66l-.03-.21s0-.02,0-.03l.11-.19c.25-.42.56-.63.92-.63.87,0,1.12,1.03,1.49,2.58.13.53.34,1.39.54,1.87,2.02-.81,4.63-1.26,7.35-1.26s5.53.49,7.48,1.36c.78-.39,1.24-1.3,1.48-2.95l.03-.2s0-.02.01-.03l.15-.15c.36-.35.67-.59,1.03-.59.24,0,.46.11.61.3.32.42.17.99-.13,2.12v.02c-.17.6-.39,1.41-.4,1.89.74.64,1.42.95,2.1.95,1.79,0,3.39-2.27,4.8-4.27.7-1,1.37-1.94,2.03-2.57l.65-.62s.02-.01.03-.01c0,0,0,0,.01,0,.02,0,.03.01.03.03l.34.83c.87,2.12-2.56,5.97-4.11,7.56.09.12.21.23.36.38.19.18.39.37.56.62,1.36-1,2.52-2.23,3.45-3.65l.33-.51s.02-.02.04-.02c0,0,.02,0,.03,0l.51.33c.24.15.96.61,1,1.35.04.74-.57,1.23-1.15,1.71-.64.52-1.07.9-1.05,1.36,1.7.89,3.69,1.56,5.61,2.21,2.95.99,5.99,2.02,8.23,3.89,2.47-1.16,5.26-1.72,8.53-1.72,4.4,0,8.87,1.01,13.19,1.98,1,.23,1.83.41,2.68.59l1.01.22s.03.02.04.03c0,.02,0,.03,0,.05l-.68.79c-1.06,1.24-2.82,1.53-4.08,1.62.11.45.4.72.92.89l1.05.34s.03.02.03.04c0,.02,0,.03-.02.05l-.84.71c-1.01.87-2.59,1.01-4.12,1.15-.67.06-1.34.12-1.94.25.49,2.25-.77,3.24-2.38,4.47l-.03.03c-.34.26-.72.56-1.12.89,1.32,1.99,3.08,3.51,4.93,5.13,2.38,2.07,4.83,4.2,6.27,7.36l.32.71s0,.03,0,.04c0,.01-.02.02-.03.03l-.76.15c-.27.05-.52.08-.76.08-.28,0-.55-.04-.81-.11,5.15,10.11,10.45,20.58,9.27,37.4l-.1,1.41s-.01.04-.03.04c0,0,0,0-.02,0-.01,0-.03,0-.04-.02l-.96-1.03c-1.36-1.44-2.59-3.01-3.79-4.53-1.46-1.86-2.98-3.79-4.7-5.45-.49,2.11-.5,4.79-.5,7.38,0,2.82-.01,5.74-.63,8.05l-.16.61s-.01.02-.02.03c0,0-.02,0-.02,0,0,0,0,0-.01,0l-.6-.18c-1.04-.3-1.61-1.02-2.12-1.65l-.02-.02c-.19-.24-.37-.46-.57-.65,0,2.86-.52,5.23-1.02,7.52v.02c-.16.7-.31,1.43-.45,2.16l-.33,1.73s-.02.03-.04.04h0s-.03,0-.04-.02l-.82-1.55c-.58-1.09-.9-2.41-1.21-3.68-.42-1.72-.82-3.35-1.77-4.34-.21.49-.16,1.45-.1,2.3.09,1.57.19,3.19-1.03,3.83l-.35.19s-.02,0-.02,0c0,0-.02,0-.03,0l-.31-.25c-1.8-1.42-2.98-3.15-3.61-5.27-1.3.91-1.87,2.64-2.48,4.48-.82,2.48-1.74,5.29-4.83,5.94l-.89.19h0s-.02,0-.03-.01c-.01-.01-.02-.03-.01-.04l.15-.89c.09-.53-.05-.73-.3-1.1-.2-.3-.46-.66-.54-1.22-.74.57-1.25,1.42-1.78,2.31-.94,1.57-2.01,3.35-4.53,3.64,0,0-.69.08-.69.08-.01,0-.02,0-.03-.01,0-.01-.02-.02-.02-.04v-3.87c-.96.67-1.68,1.61-2.44,2.6l-.02.03c-.44.57-.89,1.17-1.4,1.71l-.22.23s-.02.02-.04.02c0,0-.32-.04-.32-.04-.94-.13-1.16-.93-1.22-1.58-.26.32-.47.72-.7,1.15v.02c-.31.57-.62,1.17-1.1,1.65l-.22.22s-.02.01-.03.01c0,0-.31-.04-.31-.04-.57-.08-.93-.4-1.11-.98-1.94,2.55-4.15,4.55-6.58,5.93-2.46,1.41-5.02,2.12-7.61,2.12h0Z"/>
  <path class="st4" d="M639.19,454.25c-5.29,0-10.15-3.14-13.33-8.6-.39.42-.84.63-1.34.63-.81,0-1.62-.6-2.22-1.64,0,.05,0,.24,0,.24,0,.33,0,.67-.03.99l-.11.95s-.01.03-.03.04c0,0-.01,0-.02,0,0,0-.02,0-.02,0l-.82-.49c-1.25-.75-2-1.93-2.72-3.07-.6-.95-1.17-1.85-1.99-2.45-.19.3-.12,1.13-.03,2.02.09.85.18,1.72-.02,2.4l-.25.86s-.02.03-.03.03c0,0-.01,0-.02,0,0,0-.02,0-.03,0l-.71-.53c-2.14-1.6-4.52-3.56-5.72-6.75-.39.39-.56,1.12-.77,2.09-.1.5-.21,1.01-.37,1.48l-.33.93s-.02.03-.03.03c0,0,0,0-.01,0-.01,0-.02,0-.03-.01l-.69-.7c-2.65-2.68-5.2-5.87-5.84-11.09-1.55.6-2.19,2.13-2.92,3.9-.28.68-.57,1.38-.93,2.03l-.21.38s-.02.03-.04.03c0,0,0,0,0,0l-.42-.06c-2.31-.34-2.14-3-2-5.13.04-.55.07-1.04.07-1.5-1.75,1.53-2.15,4.48-2.32,7.45l-.09,1.5s-.01.04-.03.04c0,0-.01,0-.02,0-.01,0-.03,0-.04-.02l-.99-1.13c-1.42-1.6-1.64-4.25-1.86-6.81-.1-1.12-.2-2.27-.39-3.3-.12.06-.38.22-.71.59-.56.62-.92,1.39-.88,1.87l.31,3.9s-.01.05-.04.05c0,0,0,0-.01,0-.02,0-.04-.01-.04-.03l-1.49-3.62c-1.7-4.14-1.78-10.79-1.54-15.67-2.35,1.23-3.88,3.29-5.5,5.47h-.05s.04.02.04.02c-.81,1.09-1.65,2.22-2.6,3.23l-.86.92s-.02.01-.04.01c0,0,0,0-.01,0-.02,0-.03-.02-.03-.04l-.2-1.25c-2.41-15.31,3.63-28.35,9.14-36.61-.16-.04-.43-.06-.79-.06-.1,0-.2,0-.3,0,0,0-.24,0-.31,0-.2,0-.46,0-.72-.03l-.66-.08s-.03,0-.03-.02c0-.01-.01-.02,0-.04l.12-.65c.51-2.72,3.53-5.15,6.44-7.51,2.39-1.93,4.87-3.93,4.59-5.22-.12-.58-.94-1.45-4.1-2.27l-.73-.19s-.03-.01-.03-.03c0-.01,0-.03,0-.04l.33-.68c.36-.74.98-1.24,1.9-1.53-1.26-.75-3.01-1.12-5.19-1.12-.35,0-.72,0-1.09.03l-1.97.1s-.04-.01-.05-.03c0-.02,0-.04.02-.05l1.56-1.2c.69-.53,1.02-1.03.9-1.36-.17-.5-1.3-1.04-3.04-1.04-.1,0-.2,0-.3,0,0,0-3.3.11-3.3.11-.02,0-.04-.02-.05-.04,0-.02,0-.05.03-.05l3.04-1.3c3.81-1.63,9.9-3.37,15.59-3.37,3.34,0,6.13.6,8.31,1.78,3-1.76,6.53-3.01,9.95-4.21,1.65-.58,3.35-1.18,4.98-1.84-.07-.06-.17-.13-.28-.2-.51-.34-1.36-.91-.95-2.46l.15-.57s.02-.04.05-.04c0,0,0,0,.01,0l.58.13c.92.21,1.42.83,1.83,1.32.43.53.75.91,1.48.91.1,0,.2,0,.31-.02.21-1.49-1.54-3.57-2.96-5.24l-.03-.04c-.49-.58-.95-1.12-1.31-1.62l-.51-.69s-.01-.03,0-.04c0-.02.02-.03.03-.03l.82-.26c.21-.07.42-.1.63-.1,1.48,0,2.56,1.56,3.71,3.22.99,1.43,2.02,2.91,3.23,3.33.23.07.43.1.61.1.34,0,.52-.13.81-.32.33-.23.74-.51,1.39-.55.09-1.05-.14-1.78-.38-2.56l.04-.03-.05.02c-.16-.51-.32-1.04-.41-1.66l-.03-.21s0-.02,0-.03l.11-.19c.25-.42.56-.63.92-.63.87,0,1.12,1.03,1.49,2.58.13.53.34,1.39.54,1.87,2.02-.81,4.63-1.26,7.35-1.26s5.53.49,7.48,1.36c.78-.39,1.24-1.3,1.48-2.95l.03-.2s0-.02.01-.03l.15-.15c.36-.35.67-.59,1.03-.59.24,0,.46.11.61.3.32.42.17.99-.13,2.12v.02c-.17.6-.39,1.41-.4,1.89.74.64,1.42.95,2.1.95,1.79,0,3.39-2.27,4.8-4.27.7-1,1.37-1.94,2.03-2.57l.65-.62s.02-.01.03-.01c0,0,0,0,.01,0,.02,0,.03.01.03.03l.34.83c.87,2.12-2.56,5.97-4.11,7.56.09.12.21.23.36.38.19.18.39.37.56.62,1.36-1,2.52-2.23,3.45-3.65l.33-.51s.02-.02.04-.02c0,0,.02,0,.03,0l.51.33c.24.15.96.61,1,1.35.04.74-.57,1.23-1.15,1.71-.64.52-1.07.9-1.05,1.36,1.7.89,3.69,1.56,5.61,2.21,2.95.99,5.99,2.02,8.23,3.89,2.47-1.16,5.26-1.72,8.53-1.72,4.4,0,8.87,1.01,13.19,1.98,1,.23,1.83.41,2.68.59l1.01.22s.03.02.04.03c0,.02,0,.03,0,.05l-.68.79c-1.06,1.24-2.82,1.53-4.08,1.62.11.45.4.72.92.89l1.05.34s.03.02.03.04c0,.02,0,.03-.02.05l-.84.71c-1.01.87-2.59,1.01-4.12,1.15-.67.06-1.34.12-1.94.25.49,2.25-.77,3.24-2.38,4.47l-.03.03c-.34.26-.72.56-1.12.89,1.32,1.99,3.08,3.51,4.93,5.13,2.38,2.07,4.83,4.2,6.27,7.36l.32.71s0,.03,0,.04c0,.01-.02.02-.03.03l-.76.15c-.27.05-.52.08-.76.08-.28,0-.55-.04-.81-.11,5.15,10.11,10.45,20.58,9.27,37.4l-.1,1.41s-.01.04-.03.04c0,0,0,0-.02,0-.01,0-.03,0-.04-.02l-.96-1.03c-1.36-1.44-2.59-3.01-3.79-4.53-1.46-1.86-2.98-3.79-4.7-5.45-.49,2.11-.5,4.79-.5,7.38,0,2.82-.01,5.74-.63,8.05l-.16.61s-.01.02-.02.03c0,0-.02,0-.02,0,0,0,0,0-.01,0l-.6-.18c-1.04-.3-1.61-1.02-2.12-1.65l-.02-.02c-.19-.24-.37-.46-.57-.65,0,2.86-.52,5.23-1.02,7.52v.02c-.16.7-.31,1.43-.45,2.16l-.33,1.73s-.02.03-.04.04h0s-.03,0-.04-.02l-.82-1.55c-.58-1.09-.9-2.41-1.21-3.68-.42-1.72-.82-3.35-1.77-4.34-.21.49-.16,1.45-.1,2.3.09,1.57.19,3.19-1.03,3.83l-.35.19s-.02,0-.02,0c0,0-.02,0-.03,0l-.31-.25c-1.8-1.42-2.98-3.15-3.61-5.27-1.3.91-1.87,2.64-2.48,4.48-.82,2.48-1.74,5.29-4.83,5.94l-.89.19h0s-.02,0-.03-.01c-.01-.01-.02-.03-.01-.04l.15-.89c.09-.53-.05-.73-.3-1.1-.2-.3-.46-.66-.54-1.22-.74.57-1.25,1.42-1.78,2.31-.94,1.57-2.01,3.35-4.53,3.64,0,0-.69.08-.69.08-.01,0-.02,0-.03-.01,0-.01-.02-.02-.02-.04v-3.87c-.96.67-1.68,1.61-2.44,2.6l-.02.03c-.44.57-.89,1.17-1.4,1.71l-.22.23s-.02.02-.04.02c0,0-.32-.04-.32-.04-.94-.13-1.16-.93-1.22-1.58-.26.32-.47.72-.7,1.15v.02c-.31.57-.62,1.17-1.1,1.65l-.22.22s-.02.01-.03.01c0,0-.31-.04-.31-.04-.57-.08-.93-.4-1.11-.98-1.94,2.55-4.15,4.55-6.58,5.93-2.46,1.41-5.02,2.12-7.61,2.12h0Z"/>
  <path class="st6" d="M659.1,345.76s-.05,0-.07.03l-.65.62c-.67.64-1.33,1.58-2.04,2.58-1.41,2-3,4.25-4.77,4.25-.66,0-1.33-.3-2.05-.92.02-.47.23-1.27.39-1.85v-.02c.31-1.15.47-1.72.13-2.16-.16-.2-.39-.32-.65-.32-.38,0-.7.24-1.07.6l-.15.15s-.02.04-.03.06l-.03.2c-.23,1.62-.67,2.52-1.43,2.9-1.95-.86-4.67-1.35-7.47-1.35s-5.3.44-7.32,1.25c-.2-.48-.4-1.31-.52-1.81-.38-1.58-.64-2.62-1.54-2.62-.38,0-.7.22-.96.66l-.11.19s-.01.04-.01.06l.03.21c.09.63.25,1.15.41,1.67h0s0,.02,0,.02c.24.76.46,1.48.38,2.5-.63.05-1.04.33-1.37.56-.28.2-.46.32-.78.32-.17,0-.37-.03-.6-.1-1.18-.41-2.21-1.89-3.2-3.31-1.16-1.67-2.25-3.24-3.75-3.24-.22,0-.43.03-.65.1l-.82.26s-.05.03-.06.06c0,.03,0,.06.01.09l.51.69c.37.5.83,1.05,1.32,1.63l.03.03h0c1.39,1.66,3.12,3.71,2.95,5.18-.09.01-.18.02-.27.02-.71,0-1-.35-1.44-.89-.41-.51-.92-1.13-1.86-1.34l-.58-.13s-.02,0-.02,0c-.04,0-.08.03-.09.07l-.15.57c-.43,1.59.48,2.19.97,2.51.08.06.15.1.21.15-1.61.64-3.28,1.24-4.9,1.81-3.41,1.2-6.93,2.45-9.93,4.2-2.18-1.17-4.97-1.77-8.31-1.77-5.69,0-11.79,1.74-15.61,3.37l-3.04,1.3s-.07.06-.06.11c0,.04.05.08.09.08h0l3.3-.12c.1,0,.2,0,.29,0,1.83,0,2.86.59,3,1,.11.31-.23.8-.89,1.31l-1.56,1.2s-.05.07-.03.11c.01.04.05.06.09.06h0l1.97-.1c.37-.02.74-.03,1.09-.03,2.12,0,3.83.36,5.08,1.06-.87.3-1.47.8-1.82,1.52l-.33.68s-.01.06,0,.08c.01.03.04.05.07.05l.73.19c3.3.85,3.96,1.76,4.06,2.23.27,1.27-2.19,3.25-4.57,5.17-2.93,2.36-5.95,4.8-6.47,7.54l-.12.65s0,.05.02.08c.02.02.04.04.07.04l.66.07c.26.03.54.03.72.03.07,0,.14,0,.21,0h.1c.1,0,.2,0,.3,0,.32,0,.56.02.71.05-5.51,8.27-11.52,21.3-9.11,36.59l.2,1.24s.03.07.07.08c0,0,.02,0,.03,0,.03,0,.05-.01.07-.03l.86-.92c.95-1.01,1.79-2.14,2.6-3.23h0s0-.01,0-.01c1.6-2.15,3.11-4.18,5.41-5.41-.23,4.88-.15,11.49,1.55,15.61l1.49,3.62s.05.06.09.06c0,0,.02,0,.02,0,.05-.01.08-.05.07-.1l-.31-3.9c-.04-.47.32-1.22.87-1.83.28-.31.51-.47.64-.55.19,1.01.29,2.14.38,3.22.22,2.58.45,5.23,1.88,6.85l.99,1.13s.05.03.07.03c.01,0,.02,0,.03,0,.04-.01.06-.05.06-.09l.09-1.5c.17-2.91.56-5.8,2.22-7.34,0,.43-.03.88-.07,1.38-.14,2.16-.31,4.84,2.04,5.19l.42.06s0,0,.01,0c.03,0,.07-.02.08-.05l.21-.37c.36-.65.65-1.35.93-2.02h0c.72-1.75,1.35-3.25,2.84-3.86.66,5.19,3.2,8.38,5.85,11.05l.69.7s.04.03.07.03c0,0,.02,0,.02,0,.03,0,.06-.03.07-.06l.32-.93c.17-.48.27-.99.38-1.49.19-.92.35-1.62.7-2.01,1.21,3.16,3.58,5.12,5.71,6.7l.72.53s.04.02.06.02c.01,0,.02,0,.03,0,.03-.01.05-.04.06-.06l.25-.86c.2-.69.1-1.57.02-2.42-.09-.85-.16-1.63,0-1.95.78.6,1.34,1.47,1.92,2.4h0c.73,1.15,1.48,2.34,2.74,3.1l.82.49s.03.02.05.02c.02,0,.03,0,.04-.01.03-.01.05-.04.05-.08l.11-.95c.04-.33.03-.67.03-1v-.07c.6.97,1.38,1.51,2.17,1.51.48,0,.94-.21,1.33-.6,1.58,2.7,3.54,4.82,5.82,6.3,2.32,1.51,4.85,2.27,7.52,2.27s5.17-.72,7.64-2.13c2.41-1.38,4.61-3.36,6.54-5.88.19.54.57.85,1.12.93l.3.04h.01s.05-.01.07-.03l.22-.22c.49-.49.8-1.08,1.1-1.66h0c.2-.4.39-.77.62-1.07.08.64.33,1.37,1.25,1.5l.32.04h.01s.05,0,.07-.03l.22-.23c.51-.55.97-1.14,1.41-1.72l.02-.03c.74-.97,1.43-1.88,2.35-2.54v3.78s.01.05.03.07c.02.02.04.02.06.02,0,0,0,0,.01,0l.69-.08c2.55-.29,3.62-2.08,4.57-3.66.52-.87,1.01-1.69,1.71-2.25.09.52.33.87.53,1.16.24.35.38.55.29,1.06l-.15.89s0,.06.03.09c.02.02.04.03.07.03,0,0,.01,0,.02,0l.89-.19c3.11-.66,4.04-3.48,4.86-5.97.6-1.8,1.16-3.5,2.41-4.42.63,2.1,1.81,3.81,3.6,5.23l.31.25s.04.02.06.02c.02,0,.03,0,.05,0l.36-.19c1.25-.66,1.16-2.3,1.06-3.88-.05-.81-.11-1.72.07-2.22.9.99,1.29,2.57,1.7,4.25h0c.31,1.28.64,2.6,1.22,3.7l.82,1.55s.05.05.09.05c0,0,0,0,.01,0,.04,0,.07-.04.08-.08l.33-1.73c.14-.72.3-1.45.45-2.15v-.02s0,0,0,0c.49-2.26.99-4.6,1.02-7.41.16.17.32.36.48.57l.02.02c.51.64,1.1,1.36,2.15,1.67l.6.18s.02,0,.03,0c.02,0,.03,0,.05-.01.02-.01.04-.03.05-.06l.16-.61c.62-2.32.62-5.24.63-8.06,0-2.56,0-5.2.48-7.29,1.69,1.64,3.19,3.54,4.64,5.38,1.2,1.52,2.43,3.09,3.79,4.54l.96,1.03s.04.03.07.03c.01,0,.02,0,.03,0,.04-.01.06-.05.06-.08l.1-1.41c.53-7.55-.21-14.5-2.28-21.27-1.82-5.97-4.42-11.11-6.95-16.06.23.06.47.09.72.09s.49-.03.77-.08l.76-.15s.05-.02.07-.05c.01-.03.01-.06,0-.08l-.32-.71c-1.44-3.17-3.9-5.31-6.27-7.37h0c-1.84-1.61-3.59-3.13-4.9-5.09.38-.32.75-.61,1.08-.86l.03-.03c1.61-1.24,2.88-2.22,2.41-4.47.58-.11,1.24-.17,1.88-.23h.01c1.53-.14,3.12-.29,4.15-1.17l.84-.72s.04-.06.03-.09c0-.03-.03-.06-.06-.07l-1.05-.34c-.48-.16-.75-.41-.87-.8,1.26-.1,3-.4,4.06-1.64l.68-.79s.03-.06.02-.09c-.01-.03-.04-.06-.07-.06l-1.01-.22c-.85-.18-1.67-.37-2.67-.59h-.01c-4.32-.98-8.79-1.98-13.2-1.98-3.27,0-6.06.56-8.52,1.71-2.25-1.86-5.29-2.89-8.23-3.87-1.91-.64-3.89-1.31-5.58-2.19,0-.43.41-.79,1.03-1.3.57-.46,1.21-.98,1.17-1.75-.04-.77-.78-1.24-1.03-1.39l-.52-.33s-.03-.02-.05-.02c-.03,0-.06.02-.08.04l-.33.51c-.92,1.4-2.06,2.62-3.4,3.61-.17-.23-.36-.42-.54-.59h0c-.14-.13-.24-.24-.33-.34,1.57-1.61,4.97-5.45,4.09-7.58l-.34-.83s-.04-.05-.07-.06c0,0-.01,0-.02,0h0ZM639.19,453.59s.04,0,.07,0c-.09,0-.18,0-.26,0,.07,0,.13,0,.2,0h0ZM639.48,453.58c.09,0,.17,0,.26,0-.09,0-.17,0-.26,0h0ZM638.77,453.58c-.09,0-.18,0-.26-.01.09,0,.18.01.26.01h0ZM639.97,453.56c.09,0,.17-.01.26-.02-.09,0-.17.01-.26.02h0ZM638.29,453.56c-.09,0-.17-.01-.26-.02.09,0,.17.02.26.02h0ZM640.46,453.52c.09,0,.17-.02.26-.02-.09,0-.17.02-.26.02h0ZM637.82,453.51c-.09,0-.17-.02-.26-.03.09.01.17.02.26.03h0ZM640.95,453.47c.09-.01.17-.02.26-.04-.09.01-.17.02-.26.04h0ZM637.34,453.45c-.09-.01-.17-.03-.26-.04.09.02.17.03.26.04h0ZM641.44,453.39c.09-.01.17-.03.26-.04-.09.02-.17.03-.26.04h0ZM636.86,453.38c-.09-.02-.17-.04-.26-.05.09.02.17.04.26.05h0ZM641.93,453.3c.09-.02.17-.03.26-.05-.09.02-.17.04-.26.05h0ZM636.39,453.28c-.09-.02-.17-.04-.26-.06.09.02.17.04.26.06h0ZM642.42,453.19c.09-.02.17-.04.26-.06-.08.02-.17.05-.26.06h0ZM635.92,453.16c-.09-.02-.17-.05-.26-.07.09.02.17.05.26.07h0ZM642.91,453.06c.08-.02.17-.05.25-.07-.08.03-.17.05-.25.07h0ZM635.46,453.03c-.09-.02-.17-.05-.25-.08.09.03.17.06.25.08h0ZM643.39,452.91c.08-.03.17-.05.25-.08-.08.03-.17.05-.25.08h0ZM634.99,452.88c-.08-.03-.17-.06-.25-.09.08.03.17.06.25.09h0ZM643.88,452.75c.08-.03.17-.06.25-.09-.08.03-.17.06-.25.09h0ZM634.53,452.71c-.08-.03-.17-.07-.25-.1.08.03.17.07.25.1h0ZM644.37,452.57c.08-.03.16-.06.25-.1-.08.03-.17.07-.25.1h0ZM634.08,452.53c-.08-.04-.17-.07-.25-.11.08.04.16.07.25.11h0ZM644.85,452.37c.08-.03.16-.07.24-.11-.08.04-.16.07-.24.11h0ZM633.39,452.2c.08.04.16.08.24.12-.08-.04-.16-.08-.24-.12,0,0,0,0,0,0,0,0,0,0,0,0h0ZM645.33,452.15c.08-.04.16-.08.24-.12-.08.04-.16.08-.24.12h0ZM633.18,452.1c-.08-.04-.16-.09-.24-.13.08.04.16.09.24.13h0ZM645.81,451.91c.08-.04.16-.08.24-.12-.08.04-.16.08-.24.12h0ZM632.74,451.86c-.08-.04-.16-.09-.24-.14.08.05.16.09.24.14h0ZM646.29,451.65c.08-.04.16-.09.23-.13-.08.04-.16.09-.23.13h0ZM632.3,451.6c-.08-.05-.15-.1-.23-.15.08.05.15.1.23.15h0ZM646.76,451.38c.08-.05.15-.09.23-.14-.08.05-.15.09-.23.14h0ZM631.87,451.32c-.08-.05-.15-.1-.23-.16.08.05.15.11.23.16h0ZM647.23,451.09c.07-.05.15-.1.23-.15-.07.05-.15.1-.23.15h0ZM631.44,451.02c-.08-.05-.15-.11-.22-.17.07.05.15.11.22.17h0ZM647.7,450.78c.07-.05.15-.1.22-.15-.08.05-.15.1-.22.15h0ZM631.02,450.71c-.07-.06-.15-.12-.22-.18.08.06.15.12.22.18h0ZM648.16,450.46c.07-.05.15-.11.22-.16-.07.05-.15.11-.22.16h0ZM630.61,450.38c-.07-.06-.15-.13-.22-.19.07.06.15.13.22.19h0ZM648.62,450.11c.07-.06.15-.11.22-.17-.07.06-.15.11-.22.17h0ZM630.2,450.03c-.07-.06-.14-.13-.22-.2.07.07.14.13.22.2h0ZM649.07,449.75c.07-.06.14-.12.21-.17-.07.06-.14.12-.21.17h0ZM629.8,449.66c-.07-.07-.14-.14-.21-.21.07.07.14.14.21.21h0ZM649.52,449.37c.07-.06.14-.12.21-.18-.07.06-.14.12-.21.18h0ZM629.41,449.27c-.07-.07-.14-.15-.21-.22.07.07.14.15.21.22h0ZM649.97,448.97c.07-.06.14-.12.2-.19-.07.06-.13.12-.2.19h0ZM629.02,448.86c-.07-.07-.14-.15-.21-.23.07.08.14.16.21.23h0ZM650.41,448.56c.07-.07.13-.13.2-.19-.07.06-.13.13-.2.19h0ZM628.64,448.44c-.07-.08-.13-.16-.2-.23.07.08.13.16.2.23h0ZM650.84,448.13c.07-.07.13-.13.2-.2-.06.07-.13.13-.2.2h0ZM628.27,447.99c-.07-.08-.13-.16-.19-.25.06.08.13.17.19.25h0ZM651.27,447.68c.07-.07.13-.14.19-.21-.06.07-.13.14-.19.21h0ZM627.91,447.53c-.07-.09-.13-.18-.19-.26.06.09.13.18.19.26h0ZM651.7,447.2c.06-.07.12-.13.18-.2-.06.07-.12.14-.18.2h0ZM627.55,447.05c-.06-.09-.13-.18-.19-.27.06.09.13.19.19.27h0ZM652.11,446.72c.06-.07.12-.14.18-.21-.06.07-.12.14-.18.21h0ZM627.21,446.55c-.06-.1-.13-.2-.19-.29.06.1.13.2.19.29h0ZM652.52,446.21c.06-.07.11-.14.17-.22-.06.07-.11.14-.17.22h0ZM626.87,446.03c-.07-.11-.13-.22-.2-.33.07.11.13.22.2.33h0ZM624.52,445.62s.02,0,.03,0c-.01,0-.02,0-.03,0,0,0,0,0,0,0h0ZM624.36,445.6s-.03,0-.04-.01c.01,0,.03,0,.04.01h0ZM624.68,445.6s.03,0,.05-.01c-.02,0-.03,0-.05.01h0ZM624.2,445.56s-.03-.01-.05-.02c.02,0,.03.01.05.02h0ZM624.86,445.55s.02,0,.03-.01c-.01,0-.02,0-.03.01h0ZM624.03,445.49s-.03-.01-.04-.02c.01,0,.03,0,.04.02h0ZM652.93,445.68c.05-.07.11-.14.16-.21-.05.07-.1.14-.16.21h0ZM625.05,445.46s.03-.02.04-.03c-.01,0-.02.02-.04.03h0ZM623.84,445.39s-.02-.02-.03-.02c.01,0,.02.02.03.02h0ZM625.22,445.35s.03-.03.05-.04c-.02.01-.03.02-.05.04h0ZM623.69,445.28s-.03-.03-.05-.04c.02.02.03.03.05.04h0ZM625.4,445.17s.01-.01.02-.02c0,0-.01.01-.02.02h0ZM626.54,445.5c-.07-.12-.14-.25-.21-.37.07.12.14.25.21.37h0ZM623.53,445.14s-.03-.02-.04-.04c.01.01.03.03.04.04h0ZM623.35,444.96s-.02-.02-.03-.03c0,.01.02.02.03.03h0ZM653.35,445.11c.05-.06.09-.12.13-.18-.04.06-.09.12-.13.18h0ZM625.58,444.96s.03-.04.04-.06c-.01.02-.03.04-.04.06h0ZM623.22,444.8s-.03-.04-.04-.06c.01.02.03.04.04.06h0ZM625.73,444.72s.03-.05.04-.07c-.02.03-.03.05-.04.07h0ZM623.08,444.62s-.02-.04-.04-.05c.01.02.02.04.04.05h0ZM626.22,444.94c-.1-.19-.21-.38-.31-.57.1.19.2.38.31.57h0ZM622.93,444.38s-.01-.02-.02-.04c0,.01.02.02.02.04h0ZM622.81,444.18s-.02-.05-.04-.07c.01.02.02.04.04.07h0ZM622.7,443.96s-.02-.04-.03-.06c.01.02.02.04.03.06h0ZM622.58,443.68s0-.02-.01-.02c0,0,0,.02.01.02h0ZM622.49,443.46s-.02-.05-.02-.07c0,.02.02.05.02.07h0ZM622.42,443.23s-.01-.05-.02-.07c0,.02.01.05.02.07h0ZM587.22,431.37s0,.07,0,.1c0-.03,0-.07,0-.1,0-.04,0-.08,0-.13,0,.04,0,.08,0,.13h0ZM587.23,431.2c0-.07.02-.15.03-.23-.02.08-.02.15-.03.23h0ZM587.27,430.93c.02-.07.04-.14.06-.22-.02.07-.04.15-.06.22h0ZM587.34,430.67c.03-.08.06-.16.09-.24-.03.08-.06.16-.09.24h0ZM587.45,430.38c.03-.08.07-.16.11-.24-.04.08-.08.16-.11.24h0ZM587.57,430.12c.04-.08.08-.15.12-.22-.04.07-.09.15-.12.22h0ZM587.72,429.85c.05-.08.1-.15.15-.23-.05.07-.1.15-.15.23h0ZM587.9,429.58c.05-.07.1-.14.15-.2-.05.07-.1.13-.15.2h0ZM588.07,429.36c.05-.07.11-.14.17-.2-.06.06-.12.13-.17.2h0ZM588.28,429.11c.06-.06.12-.13.18-.19-.06.06-.12.12-.18.19h0ZM588.48,428.9c.06-.05.11-.1.16-.15-.06.05-.11.1-.16.15h0ZM588.68,428.72c.06-.05.12-.1.18-.14-.06.04-.12.09-.18.14h0ZM590.09,428.6c-.02-.06-.05-.1-.07-.14.03.04.05.09.07.14h0ZM588.9,428.55c.06-.04.12-.08.18-.12-.06.03-.12.07-.18.12h0ZM589.08,428.43c.06-.04.12-.06.17-.09-.05.02-.11.05-.17.09h0ZM590,428.43s-.06-.07-.09-.1c.03.03.06.06.09.1h0ZM589.9,428.32s-.07-.04-.1-.05c.04.01.07.03.1.05h0ZM589.29,428.32c.05-.02.11-.04.16-.05-.05.01-.11.03-.16.05h0ZM589.48,428.26s.09-.01.14-.02c-.04,0-.09,0-.14.02h0ZM589.76,428.26s-.08-.02-.13-.02c.05,0,.09,0,.13.02h0ZM585.79,387.76c-.02-.07-.04-.13-.07-.19.03.06.06.12.07.19h0ZM585.69,387.52s-.05-.07-.08-.11c.03.03.06.07.08.11h0ZM585.56,387.37s-.08-.06-.12-.09c.04.03.08.05.12.09h0ZM585.41,387.26c-.06-.03-.12-.06-.18-.08.07.02.13.05.18.08h0ZM585.17,387.17c-.05-.02-.1-.03-.16-.04.05,0,.11.02.16.04h0ZM695.55,387.11s-.03,0-.05,0h-.03s.02,0,.03,0c.01,0,.03,0,.05,0h0ZM584.94,387.12c-.05,0-.11-.02-.17-.02.06,0,.12.01.17.02h0ZM695.74,387.1s.06,0,.09,0c-.03,0-.06,0-.09,0h0ZM695.17,387.09s-.03,0-.04,0c.01,0,.03,0,.04,0h0ZM583.55,387.07h.01-.01ZM584.7,387.09c-.08,0-.16-.01-.25-.02.08,0,.17,0,.25.02h0ZM583.86,387.07c.08,0,.16,0,.24,0-.08,0-.16,0-.24,0h0ZM584.44,387.07c-.08,0-.16,0-.25,0,.08,0,.16,0,.25,0h0ZM583.28,387.07s-.05,0-.08,0c.02,0,.05,0,.08,0h0ZM694.87,387.02s-.02,0-.03,0c0,0,.02,0,.03,0h0ZM694.59,386.92s-.03-.01-.05-.02c.02,0,.03.01.05.02h0ZM694.33,386.8s-.04-.02-.06-.03c.02.01.04.02.06.03h0ZM694.07,386.66c-.07-.04-.15-.08-.22-.11.07.04.15.08.22.11h0ZM693.81,386.53c-.07-.04-.15-.07-.23-.1.08.03.16.07.23.1h0ZM693.53,386.41c-.09-.03-.17-.06-.27-.08.09.02.18.05.27.08h0ZM591.93,369.56s-.07-.06-.11-.09c.04.03.07.06.11.09h0ZM591.61,369.29s-.09-.07-.14-.1c.05.03.09.07.14.1h0ZM591.26,369.04c-.05-.03-.1-.06-.15-.1.05.03.1.06.15.1h0ZM590.89,368.82c-.05-.03-.11-.06-.16-.09.06.03.11.06.16.09h0ZM590.49,368.61c-.06-.03-.11-.05-.17-.08.06.03.11.05.17.08h0ZM590.07,368.42c-.06-.02-.11-.05-.17-.07.06.02.12.05.17.07h0ZM589.62,368.25c-.06-.02-.11-.04-.16-.05.05.02.11.04.16.05h0ZM589.08,368.09s-.05-.01-.08-.02c.03,0,.05.01.08.02h0ZM588.52,367.95c-.05-.01-.11-.02-.17-.03.05.01.11.02.17.03h0ZM588.02,367.86c-.07-.01-.14-.02-.21-.03.07.01.14.02.21.03h0ZM587.49,367.79c-.07,0-.15-.02-.23-.03.08,0,.15.02.23.03h0ZM586.95,367.73c-.08,0-.16-.01-.24-.02.08,0,.16.01.24.02h0ZM586.39,367.69c-.08,0-.16,0-.24-.01.08,0,.16,0,.24.01h0ZM584.36,367.7c.35-.02.69-.03,1.03-.03-.34,0-.68,0-1.03.03h0ZM585.8,367.67c-.08,0-.16,0-.24,0,.08,0,.16,0,.24,0h0ZM584.59,367.51s.05-.04.07-.07c-.03.02-.05.04-.07.07h0ZM584.8,367.32s.05-.05.07-.08c-.02.03-.05.05-.07.08h0ZM584.98,367.14s.05-.05.07-.08c-.02.03-.04.05-.07.08h0ZM585.13,366.95s.04-.05.06-.08c-.02.03-.04.05-.06.08h0ZM585.26,366.78s.03-.05.05-.08c-.02.03-.03.05-.05.08h0ZM585.36,366.6s.03-.06.04-.08c-.01.03-.02.05-.04.08h0ZM585.44,366.44s.02-.05.03-.08c0,.03-.02.05-.03.08h0ZM585.5,366.27s.01-.05.02-.08c0,.03-.01.05-.02.08h0ZM585.53,366.11s0-.05,0-.08c0,.03,0,.05,0,.08h0ZM585.54,365.94h0s0,0,0,0c0-.02,0-.04,0-.06,0,.02,0,.04,0,.06h0ZM585.53,365.8s0-.05-.01-.07c0,.02.01.05.01.07h0ZM585.5,365.65s-.02-.05-.02-.07c0,.02.02.05.02.07h0ZM585.45,365.51s-.02-.05-.03-.07c.01.02.02.05.03.07h0ZM585.38,365.37s-.03-.05-.04-.07c.01.02.03.04.04.07h0ZM585.29,365.24s-.04-.04-.05-.06c.02.02.04.04.05.06h0ZM585.19,365.12s-.04-.04-.06-.06c.02.02.04.04.06.06h0ZM585.06,365s-.05-.04-.07-.06c.02.02.05.04.07.06h0ZM584.92,364.89s-.05-.04-.08-.05c.02.02.05.04.08.05h0ZM584.77,364.78s-.06-.03-.08-.05c.03.02.06.03.08.05h0ZM584.6,364.69s-.06-.03-.09-.05c.03.02.06.03.09.05h0ZM584.41,364.59s-.07-.03-.1-.04c.03.02.06.03.1.04h0ZM584.22,364.51s-.07-.03-.11-.04c.04.01.07.03.11.04h0ZM584.01,364.43s-.08-.02-.11-.04c.04.01.07.02.11.04h0ZM583.78,364.36s-.08-.02-.12-.03c.04,0,.08.02.12.03h0ZM583.55,364.3s-.08-.02-.12-.03c.04,0,.08.02.12.03h0ZM583.3,364.25s-.08-.02-.12-.02c.04,0,.08.02.12.02h0ZM583.04,364.2s-.08-.01-.12-.02c.04,0,.08.01.12.02h0ZM582.76,364.17s-.07,0-.11-.01c.04,0,.07,0,.11.01h0ZM582.45,364.14s-.05,0-.07,0c.02,0,.05,0,.07,0h0ZM582.09,364.12s-.05,0-.07,0c.02,0,.04,0,.07,0h0ZM581.8,364.11c-.1,0-.21,0-.31,0,.1,0,.21,0,.31,0h0ZM582.39,363.75c-.07.03-.14.06-.21.09.07-.03.14-.06.21-.09,0,0,0,0,0,0,0,0,0,0,0,0h0ZM583.17,363.45c-.09.03-.17.06-.25.1.09-.03.17-.06.25-.1h0ZM697.57,363.4c-.28-.06-.57-.12-.86-.19.29.06.57.13.86.19h0ZM583.75,363.24s0,0,0,0c0,0,0,0,0,0,.07-.02.13-.05.2-.07-.07.02-.14.05-.2.07h0ZM696.42,363.15c-.2-.04-.4-.09-.6-.13.2.05.4.09.6.13h0ZM584.75,362.9c.05-.02.11-.03.16-.05-.05.02-.11.03-.16.05h0ZM695.47,362.94c-.23-.05-.45-.1-.68-.15.23.05.45.1.68.15h0ZM585.58,362.64c.09-.03.19-.06.28-.08-.09.03-.19.06-.28.08h0ZM693.79,362.56s-.07-.01-.1-.02c.03,0,.06.02.1.02h0ZM673.21,362.68c.21-.1.42-.2.62-.29-.21.09-.42.19-.62.29h0ZM605.14,362.68c-.18-.1-.36-.2-.54-.3.18.09.37.19.54.3h0ZM692.92,362.36c-.09-.02-.19-.04-.28-.06.09.02.19.04.28.06h0ZM586.46,362.38c.09-.03.19-.05.28-.08-.09.03-.19.05-.28.08h0ZM674.01,362.31c.16-.07.32-.14.48-.2-.16.07-.32.13-.48.2h0ZM692,362.17c-.1-.02-.2-.04-.3-.06.1.02.2.04.3.06h0ZM604.43,362.31c-.14-.07-.29-.14-.44-.2.15.06.3.13.44.2h0ZM587.47,362.1c.05-.01.1-.03.15-.04-.05.01-.1.03-.15.04h0ZM690.97,361.95c-.06-.01-.12-.02-.18-.04.06.01.12.03.18.04h0ZM674.66,362.04c.21-.08.42-.16.63-.23-.21.07-.42.15-.63.23h0ZM603.85,362.04c-.19-.08-.39-.16-.59-.23.2.07.39.15.59.23h0ZM588.77,361.79c-.08.02-.16.04-.25.06.08-.02.16-.04.25-.06h0ZM689.89,361.73c-.08-.01-.15-.03-.23-.04.08.01.15.03.23.04h0ZM675.43,361.77c.18-.06.35-.11.53-.16-.18.05-.35.11-.53.16h0ZM603.15,361.77c-.17-.06-.34-.12-.51-.17.17.05.34.11.51.17h0ZM589.75,361.58c-.1.02-.2.04-.31.06.1-.02.2-.04.31-.06h0ZM688.98,361.56c-.1-.02-.2-.03-.3-.05.1.02.2.03.3.05h0ZM676.16,361.55c.17-.05.35-.09.52-.14-.18.04-.35.09-.52.14h0ZM590.42,361.45c.09-.02.19-.04.28-.05-.09.02-.19.04-.28.05h0ZM602.47,361.54c-.18-.05-.35-.1-.54-.15.18.05.36.1.54.15h0ZM688.02,361.4c-.1-.02-.19-.03-.28-.05.09.01.19.03.28.05h0ZM676.82,361.38c.22-.05.44-.1.65-.14-.22.04-.44.09-.65.14h0ZM591.64,361.23s.03,0,.05,0c-.02,0-.03,0-.05,0h0ZM686.86,361.22s-.02,0-.03,0c0,0,.02,0,.03,0h0ZM601.83,361.37c-.21-.05-.43-.1-.65-.15.22.05.43.09.65.15h0ZM677.66,361.21c.17-.03.34-.06.51-.09-.17.03-.34.06-.51.09h0ZM601.02,361.19c-.17-.04-.34-.07-.52-.1.17.03.35.06.52.1h0ZM685.92,361.1c-.09-.01-.18-.02-.27-.03.09,0,.18.02.27.03h0ZM592.58,361.1c.1-.01.19-.02.29-.04-.1.01-.2.02-.29.04h0ZM678.37,361.09c.21-.03.42-.06.63-.09-.21.02-.42.05-.63.09h0ZM684.99,361c-.1,0-.2-.02-.3-.03.1,0,.2.02.3.03h0ZM600.32,361.06c-.22-.04-.45-.07-.68-.1.23.03.45.06.68.1h0ZM593.54,360.98c.11-.01.21-.02.32-.03-.1,0-.21.02-.32.03h0ZM679.04,360.99c.23-.03.45-.05.68-.07-.23.02-.45.04-.68.07h0ZM684.01,360.92c-.08,0-.16-.01-.25-.02.08,0,.17.01.25.02h0ZM599.61,360.96c-.22-.03-.44-.05-.66-.07.22.02.44.04.66.07h0ZM679.92,360.91c.17-.01.35-.03.52-.03-.17,0-.34.02-.52.03h0ZM594.57,360.89c.08,0,.16-.01.24-.02-.08,0-.16.01-.24.02h0ZM682.86,360.86s-.09,0-.14,0c.05,0,.09,0,.14,0h0ZM680.63,360.87c.23,0,.45-.02.68-.02-.23,0-.45.01-.68.02h0ZM598.76,360.88c-.18-.01-.36-.03-.55-.04.18.01.37.02.55.04h0ZM681.43,360.84c.13,0,.26,0,.39,0,.04,0,.08,0,.12,0h0,0s-.07,0-.1,0c-.14,0-.27,0-.41,0h0ZM595.75,360.82c.07,0,.13,0,.2,0-.07,0-.13,0-.2,0h0ZM598.04,360.83c-.23-.01-.47-.02-.7-.02.23,0,.47.01.7.02h0ZM596.69,360.8h0,.18c.1,0,.19,0,.29,0h.02-.02c-.12,0-.23,0-.34,0-.04,0-.08,0-.12,0h0ZM622.9,355.62c-.1,0-.2,0-.29-.02.09.01.19.02.29.02h0ZM622.95,355.62c.11,0,.23,0,.35-.02-.12.01-.24.02-.35.02h0ZM622.56,355.59c-.09-.01-.18-.03-.26-.05.08.02.17.04.26.05h0ZM623.34,355.59c.13-.02.27-.04.42-.08-.15.03-.29.06-.42.08h0ZM622.27,355.53c-.09-.03-.17-.05-.24-.09.08.03.16.06.24.09h0ZM622.03,355.44c-.08-.03-.15-.07-.22-.12.07.04.14.08.22.12h0ZM621.79,355.31c-.06-.04-.12-.09-.18-.13.06.05.12.09.18.13h0ZM621.57,355.16c-.06-.05-.11-.1-.16-.15.05.05.11.1.16.15h0ZM621.38,354.99c-.05-.05-.11-.11-.16-.16.05.06.1.11.16.16h0ZM621.22,354.81c-.05-.06-.1-.12-.15-.18.05.06.1.12.15.18h0ZM621.05,354.62c-.05-.06-.11-.13-.16-.2.05.07.11.13.16.2h0ZM620.75,354.25s-.02-.02-.03-.03c0,.01.02.02.03.03h0ZM627.32,354.21s-.02,0-.03,0c.01,0,.02,0,.03,0h0ZM627.52,354.21s.05,0,.07,0c-.02,0-.05,0-.07,0h0ZM627.78,354.18s.02,0,.02,0c0,0-.02,0-.02,0h0ZM627.02,354.18s-.04,0-.07-.01c.02,0,.04,0,.07.01h0ZM628,354.13s.03-.01.05-.02c-.02,0-.03.01-.05.02h0ZM620.58,354.05s-.01-.01-.02-.02c0,0,.01.01.02.02h0ZM628.17,354.05s.03-.02.05-.03c-.02,0-.03.02-.05.03h0ZM628.35,353.95s.02,0,.02-.01c0,0-.02,0-.02.01h0ZM626.36,353.98s-.06-.03-.09-.05c.03.02.06.03.09.05h0ZM651.61,353.94c.09,0,.17,0,.26-.01-.08,0-.17.01-.26.01h0ZM651.55,353.94c-.09,0-.19,0-.28-.02.1,0,.19.02.28.02h0ZM651.9,353.93c.08,0,.15-.02.23-.04-.07.02-.15.03-.23.04h0ZM651.25,353.92c-.09-.01-.19-.03-.28-.05.09.02.19.04.28.05h0ZM620.4,353.88s0,0-.01-.01c0,0,0,0,.01.01h0ZM652.17,353.88c.08-.02.16-.04.24-.06-.08.02-.16.04-.24.06h0ZM628.53,353.84s.04-.03.07-.05c-.02.02-.04.03-.07.05h0ZM650.93,353.87c-.1-.02-.19-.05-.29-.08.1.03.19.06.29.08h0ZM626.09,353.84s-.07-.04-.1-.06c.04.02.07.04.1.06h0ZM652.47,353.8c.08-.02.15-.05.23-.08-.08.03-.15.06-.23.08h0ZM620.22,353.72s-.02-.02-.03-.02c.01,0,.02.01.03.02h0ZM650.58,353.77c-.1-.03-.2-.07-.3-.12.1.05.2.08.3.12h0ZM628.71,353.72s.08-.05.11-.08c-.04.02-.08.05-.11.08h0ZM652.72,353.72c.08-.03.16-.07.24-.11-.08.04-.16.07-.24.11h0ZM625.83,353.68s-.07-.05-.11-.08c.04.03.07.05.11.08h0ZM620,353.58s-.02-.02-.04-.02c.01,0,.02.01.04.02h0ZM628.86,353.62c.05-.03.1-.06.15-.09-.05.03-.1.06-.15.09h0ZM650.24,353.63c-.1-.05-.2-.09-.29-.15.1.06.2.11.29.15h0ZM653.01,353.59c.08-.04.16-.08.24-.13-.08.05-.16.09-.24.13h0ZM629.05,353.51s.09-.04.13-.06c-.04.02-.09.04-.13.06h0ZM619.75,353.46s-.02,0-.03-.01c0,0,.02,0,.03.01h0ZM625.58,353.5s-.07-.06-.11-.09c.04.03.07.06.11.09h0ZM629.24,353.43s.1-.03.15-.04c-.05.01-.1.03-.15.04h0ZM629.43,353.37c.06-.02.13-.03.21-.03-.07,0-.14.02-.21.03h0ZM630.21,353.37c-.1-.02-.18-.02-.27-.03.09,0,.17.02.27.03h0ZM629.68,353.34s.1,0,.14,0c.01,0,.03,0,.04,0h.01-.01s-.04,0-.06,0c-.04,0-.09,0-.13,0h0ZM653.25,353.45c.08-.05.15-.09.22-.14-.07.05-.15.1-.22.14h0ZM649.92,353.46c-.1-.06-.21-.13-.31-.2.1.07.21.14.31.2h0ZM625.34,353.29s-.07-.06-.11-.1c.04.03.07.07.11.1h0ZM653.53,353.28c.08-.05.15-.1.22-.16-.07.06-.15.11-.22.16h0ZM649.54,353.22c-.1-.07-.2-.15-.31-.23.1.08.21.16.31.23h0ZM625.1,353.07s-.07-.07-.11-.11c.04.04.07.07.11.11h0ZM653.79,353.09c.07-.05.13-.1.2-.16-.07.05-.13.11-.2.16h0ZM624.86,352.84s-.07-.08-.11-.11c.04.04.07.08.11.11h0ZM654.02,352.9c.07-.06.15-.12.22-.19-.07.06-.14.13-.22.19h0ZM631.56,352.57s-.02-.02-.03-.03c0,.01.02.02.03.03h0ZM654.29,352.67c.07-.06.14-.13.2-.19-.07.07-.13.13-.2.19h0ZM624.63,352.58s-.07-.08-.11-.12c.04.04.07.08.11.12h0ZM649.18,352.94c-.11-.09-.22-.19-.33-.29-.01-.06-.02-.13-.02-.21,0,.07,0,.14.02.21.11.1.22.2.33.29h0ZM631.49,352.47s-.02-.03-.03-.04c.01.02.02.03.03.04h0ZM646.32,352.48c-.06-.02-.12-.05-.18-.07.06.02.12.05.18.07h0ZM632.46,352.32s0,0,0,0c0,0,0,0,0,0h0ZM631.41,352.35s-.02-.03-.03-.05c0,.02.02.04.03.05h0ZM645.93,352.32c-.07-.03-.14-.05-.21-.08.07.03.14.05.21.08h0ZM654.51,352.46c.07-.07.14-.14.21-.22-.07.08-.14.15-.21.22h0ZM624.41,352.32s-.07-.08-.1-.12c.03.04.07.08.1.12h0ZM648.82,352.37s0,.03,0,.04c0-.01,0-.02,0-.04,0-.06,0-.12,0-.19,0,.07,0,.13,0,.19h0ZM631.33,352.21s-.02-.04-.03-.06c0,.02.02.04.03.06h0ZM645.53,352.18c-.07-.02-.15-.05-.22-.07.07.02.15.05.22.07h0ZM633.32,352.03s.01,0,.02,0c0,0-.01,0-.02,0h0ZM631.26,352.06s-.02-.04-.02-.06c0,.02.02.04.02.06h0ZM645.1,352.04c-.08-.02-.16-.05-.24-.07.08.02.16.05.24.07h0ZM654.77,352.19c.07-.07.14-.15.21-.23-.07.08-.14.15-.21.23h0ZM624.18,352.04s-.07-.09-.1-.13c.03.04.07.09.1.13h0ZM648.84,352.13c0-.08.02-.17.03-.26-.01.09-.02.17-.03.26h0ZM644.67,351.91c-.08-.02-.17-.04-.25-.07.08.02.17.04.25.07h0ZM631.17,351.83s0,.02.01.04c0-.01,0-.02-.01-.04t0,0s0,0,0,0h0ZM634.23,351.79s.02,0,.03,0c0,0-.02,0-.03,0h0ZM644.22,351.79c-.09-.02-.17-.04-.26-.06.09.02.18.04.26.06h0ZM654.99,351.94c.06-.07.13-.15.19-.22-.06.08-.13.15-.19.22h0ZM643.76,351.69c-.09-.02-.18-.03-.27-.05.09.02.18.04.27.05h0ZM623.97,351.76s-.06-.09-.1-.13c.03.04.06.09.1.13h0ZM631.11,351.64s0-.03-.01-.04c0,.01,0,.03.01.04h0ZM648.86,351.87c.01-.09.03-.19.05-.28-.02.1-.04.19-.05.28h0ZM635.18,351.59s.03,0,.04,0c-.01,0-.03,0-.04,0h0ZM643.29,351.59c-.09-.02-.18-.03-.27-.05.09.02.18.03.27.05h0ZM642.81,351.51c-.09-.01-.18-.03-.27-.04.09.01.18.03.27.04h0ZM655.23,351.67c.07-.08.13-.16.2-.24-.07.08-.13.16-.2.24h0ZM636.15,351.44s.04,0,.05,0c-.02,0-.03,0-.05,0h0ZM642.33,351.44c-.09-.01-.18-.02-.28-.04.09.01.18.02.28.04h0ZM631.05,351.45s-.01-.04-.02-.07c0,.02.01.05.02.07h0ZM641.83,351.38c-.09,0-.19-.02-.28-.03.09,0,.19.02.28.03h0ZM623.75,351.47s-.06-.09-.1-.13c.03.04.06.09.1.13h0ZM637.15,351.32s.04,0,.06,0c-.02,0-.04,0-.06,0h0ZM641.33,351.32c-.09,0-.18-.01-.27-.02.09,0,.18.01.27.02h0ZM640.82,351.28c-.09,0-.18,0-.27-.02.09,0,.18.01.27.02h0ZM638.16,351.26s.05,0,.08,0c-.03,0-.05,0-.08,0h0ZM648.92,351.53c.02-.09.04-.19.06-.28-.02.1-.04.19-.06.28h0ZM640.31,351.26c-.09,0-.18,0-.27,0,.09,0,.18,0,.27,0h0ZM639.79,351.24c-.09,0-.18,0-.27,0,.09,0,.18,0,.27,0h0ZM639.2,351.23h-.02.02s.05,0,.08,0h-.04s-.02,0-.04,0h0ZM630.99,351.24s-.01-.05-.02-.08c0,.03.01.05.02.08h0ZM655.46,351.38c.06-.07.12-.14.18-.22-.06.08-.12.15-.18.22h0ZM623.54,351.18s-.06-.09-.1-.14c.03.05.06.09.1.14h0ZM630.93,351.03s-.01-.05-.02-.08c0,.03.02.05.02.08h0ZM649,351.2c.02-.1.05-.19.07-.29-.03.1-.05.19-.07.29h0ZM655.67,351.12c.06-.08.13-.17.19-.25-.06.08-.13.17-.19.25h0ZM623.34,350.9c-.03-.05-.07-.1-.11-.15.03.05.07.1.11.15h0ZM630.87,350.81s-.01-.05-.02-.08c0,.03.01.05.02.08h0ZM649.07,350.9c.03-.1.05-.2.08-.31-.03.1-.05.2-.08.31h0ZM655.91,350.81c.06-.08.12-.16.18-.24-.06.08-.12.16-.18.24h0ZM630.81,350.57s0-.03-.01-.05c0,.02,0,.04.01.05h0ZM656.1,350.55c.06-.09.13-.17.19-.26-.06.09-.12.17-.19.26h0ZM649.16,350.53c.03-.1.05-.2.08-.3-.03.1-.05.2-.08.3h0ZM656.34,350.22c.06-.08.12-.17.18-.25-.06.08-.12.17-.18.25h0ZM649.33,349.92s0,.02,0,.03c0,0,0-.02,0-.03h0ZM623.23,350.74c-.2-.29-.39-.57-.59-.85.2.28.39.56.59.85h0ZM630.67,350.02c-.01-.05-.02-.1-.04-.15.01.05.02.1.04.15h0ZM656.56,349.91c.05-.07.09-.13.14-.2-.05.07-.09.13-.14.2h0ZM630.62,349.79s-.02-.09-.03-.13c.01.04.02.09.03.13h0ZM649.39,349.67s0-.03.01-.05c0,.02,0,.04-.01.05h0ZM622.6,349.84c-.05-.08-.11-.15-.16-.22.05.07.11.15.16.22h0ZM630.56,349.58s-.02-.09-.03-.13c.01.04.02.09.03.13h0ZM656.77,349.61c.05-.06.09-.13.14-.19-.05.06-.09.13-.14.19h0ZM649.46,349.39s0-.02,0-.04c0,.01,0,.02,0,.04h0ZM622.38,349.53c-.05-.06-.09-.12-.14-.18.05.06.09.12.14.18h0ZM630.51,349.37s-.02-.08-.04-.13c.01.04.02.08.04.13h0ZM649.51,349.15s0,0,0-.01c0,0,0,0,0,.01h0ZM622.17,349.25c-.04-.06-.08-.11-.13-.17.04.05.08.11.13.17h0ZM630.46,349.17s-.03-.09-.04-.14c.01.05.03.09.04.14h0ZM649.53,348.96s0-.02,0-.03c0,0,0,.02,0,.03h0ZM649.02,348.91s.03-.03.04-.04c-.01.01-.03.02-.04.04h0ZM621.97,348.99s-.08-.1-.12-.15c.04.05.08.1.12.15h0ZM630.4,348.99c-.02-.06-.04-.12-.05-.17.02.06.03.11.05.17h0ZM657.33,348.82s.02-.02.02-.03c0,.01-.02.02-.02.03h0ZM649.52,348.8s0,0,0-.02c0,0,0,0,0,.02h0ZM649.17,348.78s.02-.02.03-.02c-.01,0-.02.02-.03.02h0ZM649.49,348.71s0,0,0,0c0,0,0,0,0,0h0ZM649.31,348.7s0,0,.01,0c0,0,0,0-.01,0h0ZM649.42,348.68s0,0,0,0c0,0,0,0-.01,0,0,0,.01,0,.02,0h0ZM630.34,348.78s-.03-.08-.04-.12c.01.04.03.08.04.12h0ZM621.77,348.75s-.08-.09-.12-.13c.04.04.08.09.12.13h0ZM630.28,348.6s-.03-.06-.04-.09c.01.03.02.06.04.09h0ZM621.56,348.52s-.08-.08-.11-.12c.04.04.08.08.11.12h0ZM630.22,348.46s-.02-.05-.04-.08c.01.03.02.05.04.08h0ZM630.16,348.33s-.02-.05-.04-.07c.01.02.02.04.04.07h0ZM657.72,348.29s.02-.03.03-.05c-.01.02-.02.03-.03.05h0ZM621.36,348.32s-.08-.07-.11-.11c.04.03.07.07.11.11h0ZM629.59,348.22s.02-.02.03-.03c0,.01-.02.02-.03.03h0ZM630.1,348.23s-.03-.04-.04-.06c.01.02.03.04.04.06h0ZM629.68,348.12s.02-.02.03-.02c-.01,0-.02.01-.03.02h0ZM630.04,348.15s-.04-.04-.06-.06c.02.02.04.04.06.06h0ZM629.76,348.07s.02,0,.03-.01c-.01,0-.02,0-.03.01h0ZM629.97,348.09s-.04-.02-.06-.03c.02,0,.04.02.06.03h0ZM629.84,348.05h0,0s.02,0,.03,0c0,0,0,0,0,0,0,0,0,0,0,0,0,0-.02,0-.03,0,0,0,0,0,0,0h0ZM621.16,348.13s-.08-.06-.12-.09c.04.03.08.06.12.09h0ZM657.93,348.01s.01-.02.02-.02c0,0-.01.01-.02.02h0ZM620.96,347.97s-.07-.05-.11-.08c.04.02.07.05.11.08h0ZM620.75,347.83s-.08-.04-.12-.06c.04.02.08.04.12.06h0ZM658.1,347.79s.02-.03.03-.04c-.01.01-.02.03-.03.04h0ZM620.55,347.72s-.08-.03-.12-.05c.04.02.08.03.12.05h0ZM620.34,347.64s-.08-.02-.12-.03c.04,0,.08.02.12.03h0ZM619.47,347.64c.08-.02.15-.04.23-.05-.07.01-.15.03-.23.05h0ZM620.13,347.59s-.09,0-.13-.01c.04,0,.09,0,.13.01h0ZM619.82,347.57s-.04,0-.05,0c.02,0,.04,0,.05,0,.03,0,.05,0,.08,0h.02,0s0,0-.01,0c-.03,0-.05,0-.08,0h0ZM658.3,347.54s.02-.02.03-.03c-.01.01-.02.02-.03.03h0ZM658.51,347.3s-.02.02-.02.03c0,0,.02-.02.02-.03h0ZM658.67,347.12s.02-.03.04-.04c-.01.01-.02.02-.04.04h0ZM659.1,345.85l.34.83c.88,2.15-2.8,6.18-4.13,7.54.09.13.22.26.39.42.19.18.41.39.59.66,1.39-1.01,2.56-2.25,3.5-3.7l.33-.51.52.33c.23.15.94.6.98,1.31.04.71-.56,1.2-1.14,1.67-.67.55-1.1.94-1.07,1.43,1.7.9,3.7,1.57,5.64,2.23,2.96.99,6.01,2.02,8.24,3.9,2.46-1.16,5.26-1.73,8.54-1.73,4.4,0,8.87,1.01,13.19,1.98.92.21,1.8.41,2.67.59l1.01.22-.68.79c-1,1.16-2.64,1.5-4.1,1.61.11.5.41.8.96.98l1.04.34-.84.72c-1,.86-2.58,1-4.1,1.14-.68.06-1.38.13-1.99.26.52,2.26-.71,3.2-2.35,4.47-.36.28-.77.59-1.19.95,1.32,2.01,3.1,3.55,4.97,5.17,2.37,2.06,4.82,4.19,6.25,7.35l.32.71-.76.15c-.27.05-.51.08-.75.08-.35,0-.65-.06-.91-.14,5.17,10.15,10.5,20.67,9.32,37.48l-.1,1.41-.97-1.03c-1.35-1.44-2.59-3.01-3.79-4.53-1.49-1.89-3.02-3.84-4.77-5.51-.51,2.13-.52,4.84-.52,7.48,0,2.82,0,5.73-.63,8.04l-.16.61-.61-.18c-1.02-.3-1.59-1.01-2.1-1.64-.23-.28-.44-.54-.67-.75,0,2.91-.52,5.3-1.02,7.63-.15.71-.31,1.44-.45,2.17l-.33,1.73-.82-1.55c-.58-1.09-.9-2.4-1.21-3.67-.43-1.75-.84-3.41-1.82-4.4-.25.48-.19,1.49-.14,2.39.09,1.55.19,3.16-1.01,3.79l-.36.19-.31-.25c-1.81-1.43-3-3.17-3.61-5.31-1.36.91-1.94,2.68-2.56,4.54-.81,2.47-1.74,5.26-4.79,5.9l-.89.19.15-.89c.09-.55-.06-.77-.31-1.13-.21-.31-.48-.69-.54-1.28-.79.58-1.31,1.46-1.86,2.38-.94,1.56-1.99,3.33-4.5,3.62l-.69.08v-3.96c-1.01.67-1.75,1.65-2.53,2.67-.45.58-.9,1.19-1.42,1.74l-.22.23-.32-.04c-.94-.13-1.14-.96-1.19-1.65-.3.34-.53.77-.78,1.25-.3.58-.61,1.17-1.1,1.65l-.22.22-.3-.04c-.67-.09-.96-.54-1.1-1.04-3.9,5.18-9.01,8.11-14.21,8.11s-10.14-3.13-13.32-8.63c-.47.53-.97.66-1.35.66-.92,0-1.73-.78-2.27-1.78,0,.14,0,.27,0,.4,0,.34,0,.69-.03,1.02l-.11.95-.82-.49c-1.24-.75-1.99-1.92-2.71-3.06-.61-.97-1.19-1.88-2.03-2.49-.23.28-.17,1.09-.06,2.09.09.84.18,1.71-.01,2.38l-.25.86-.71-.53c-2.17-1.61-4.55-3.6-5.73-6.8-.43.38-.62,1.12-.83,2.17-.1.49-.21,1.01-.37,1.48l-.33.93-.69-.7c-2.67-2.69-5.21-5.9-5.84-11.12-1.61.59-2.26,2.16-3.01,3.94-.28.68-.57,1.38-.93,2.02l-.21.38-.42-.06c-2.27-.34-2.1-2.97-1.96-5.09.04-.54.07-1.09.07-1.6-1.81,1.5-2.24,4.49-2.42,7.55l-.09,1.5-.99-1.13c-1.41-1.59-1.63-4.24-1.85-6.79-.1-1.14-.2-2.32-.41-3.36-.16.07-.45.26-.78.63-.57.63-.94,1.41-.9,1.9l.31,3.9-1.49-3.62c-1.68-4.09-1.79-10.63-1.53-15.74-2.4,1.24-3.96,3.33-5.6,5.53-.81,1.09-1.65,2.22-2.6,3.23l-.86.92-.2-1.24c-2.41-15.28,3.6-28.29,9.17-36.63-.16-.06-.44-.09-.87-.09-.1,0-.2,0-.3,0-.1,0-.21,0-.31,0-.2,0-.46,0-.71-.03l-.66-.08.12-.65c.51-2.7,3.52-5.13,6.43-7.48,2.4-1.94,4.89-3.95,4.6-5.27-.13-.6-.95-1.48-4.13-2.3l-.73-.19.33-.68c.37-.75,1.02-1.25,1.97-1.54-1.28-.79-3.06-1.19-5.31-1.19-.35,0-.72,0-1.09.03l-1.97.1,1.56-1.2c.71-.54,1.04-1.06.92-1.42-.18-.52-1.32-1.07-3.09-1.07-.1,0-.2,0-.3,0l-3.3.11,3.04-1.3c3.8-1.63,9.89-3.37,15.57-3.37,3.35,0,6.14.6,8.31,1.78,3-1.77,6.53-3.01,9.96-4.22,1.68-.59,3.41-1.2,5.06-1.87-.07-.07-.18-.15-.35-.26-.5-.33-1.33-.89-.93-2.41l.15-.57.58.13c.9.2,1.4.82,1.8,1.31.44.54.76.93,1.51.93.11,0,.23,0,.35-.02.24-1.52-1.53-3.62-2.97-5.33-.5-.59-.97-1.14-1.34-1.65l-.51-.69.82-.26c.2-.06.41-.1.62-.1,1.46,0,2.53,1.55,3.67,3.19,1,1.44,2.03,2.93,3.25,3.35.24.07.45.1.63.1.35,0,.54-.13.83-.33.34-.23.75-.52,1.4-.55.1-1.09-.14-1.84-.38-2.63-.16-.51-.33-1.04-.41-1.66l-.03-.21.11-.19c.24-.4.54-.61.88-.61.83,0,1.07,1.01,1.45,2.54.13.54.35,1.45.56,1.92,2.03-.82,4.62-1.27,7.37-1.27s5.53.49,7.48,1.36c.82-.4,1.28-1.31,1.52-3l.03-.21.15-.15c.35-.35.65-.57,1-.57.22,0,.43.1.57.28.31.4.16.96-.14,2.08-.17.63-.4,1.46-.4,1.95.75.65,1.45.97,2.14.97,1.82,0,3.43-2.28,4.84-4.29.7-.99,1.36-1.93,2.02-2.56l.65-.62h0Z"/>
  <path class="st3" d="M689.69,396.36c-5.93-11.02-10.61-23.3-25.08-25.79-.05-2.1-1.64-2.66-2.87-3.58-.12-1.55,2.54-.32,3.58-.72-.78-2.09-2.93-2.81-5.02-3.58-4.88,3.11-16.27,9.55-20.06,1.43-7.49,10.94-20.32-6.1-26.51,1.43-.12,1.55,2.54.32,3.58.72-1.02,1.37-2.72,2.06-2.87,4.3-14.17,2.54-18.58,14.85-25.08,25.08.22,1.3,3.02-.73,3.58-1.43,1.11,2.8-3.05,6.48-3.58,10.03,1.45,1.17,3.6-3.06,6.45-2.87-1.44,3.58-1.85,8.18-2.87,12.18,2.9-1.88,4.93-4.63,7.17-7.16,1.65,1.93.26,6.91.72,10.03,2.09.87,3.54-5.04,8.6-3.58,3.64,6.27.12,17.55,4.3,24.36-3.21-.37-2.93-4.23-5.02-5.73-1.11,1.04-1.5,2.8-1.43,5.02-3.68-1.81-3.03-7.95-4.3-12.18-2.57,1.01-3.05,4.12-5.73,5.02.57-2.49-1.07-2.75-.72-5.02-2.22.41-1.88,3.37-4.3,3.58v-5.73c-1.45-1.63-2.38,3.31-5.01,2.86v-15.05c-3.94,1.32-5.15,5.36-8.6,7.17,1.06-21.15,12.68-31.74,21.5-45.14-4.37-.88-6.58-3.93-9.31-6.45,4.9-4.13,12.34-1.12,14.33,3.58,2.27.12,2.39-1.9,5.02-1.43.65-2.38-3.98-3.11-2.15-4.3,4.57-1.64,11.29-1.13,14.33-4.3,3.95,1.06,4.91,5.12,7.88,7.17,1.81-2.51-2.7-8-1.43-10.03,4.54-.72,2.76,4.89,5.02,6.45,1.92-1.57-2.57-5.53-.72-7.17,3.71-.36,2.74,3.95,3.58,6.45,2.04-1.63-1.01-4.2,0-7.17,2.85.52,2.88.52,5.73,0,.55,3.42-1.12,4.61-.72,7.88,2.16-1.66-.04-7.68,4.3-7.17,1.18,1.54-.9,4.41-1.43,6.45,1.72,1.44,2.67-3.99,3.58-5.73h2.15c.79,2.29-2.05,6.33-2.15,10.03,4.14-.88,4.38-5.65,7.88-7.17,4.11,2.1,8.73,3.69,15.05,3.58,1.55,1.63-1.43,2.77-2.15,4.3,1.37,1.02,3.11,1.67,5.01,2.15,2.4-4.71,8.17-7.11,14.33-4.3-2.36,2.9-3.65,6.86-9.32,6.45,8.35,14.1,20.61,24.3,21.5,45.86-3.17-1.85-4.8-5.23-7.88-7.17-1.66,3.59-.25,10.26-.72,15.05-2.6-.03-2.3-2.95-4.3-3.58-1.62.76-.27,4.5-.72,6.45-2.39,0-1.9-2.88-3.58-3.58-1.07,1.09-1.15,3.15-1.43,5.02-2.69-.9-3.16-4.01-5.73-5.02-.87,4.62-.77,10.22-4.3,12.18.42-2.33-.49-3.33-.72-5.02-3.24.58-2.11,5.53-5.73,5.73,4.05-5.5,1.37-17.73,4.3-24.36,5.07-.77,5.84,2.76,8.6,4.3.33-3.49-.75-8.39.71-10.75,1.96,2.58,4.49,4.58,6.45,7.16.76-2.69-.82-9.2-2.15-12.18,2.95.39,4.19,2.49,6.45,3.58-.66-4.35-3.33-6.7-4.3-10.75,1.46.69,2.83,1.46,4.3,2.15h0Z"/>
  <path class="st1" d="M623.77,372c-2.69.54-1.56-2.74-3.58-2.87-1.57.11-1.54,1.81-1.43,3.58-1.96.52-1.44-1.42-2.87-1.43-.32-5.6,10.72-3.73,7.88.72h0ZM663.17,371.28c-1.42,0-.91,1.96-2.87,1.43.23-1.66-.11-2.75-.72-3.58-2.95-.56-1.35,3.43-4.3,2.87-2.75-4.53,7.98-6.1,7.88-.72h0Z"/>
  <path class="st5" d="M616.6,379.88c1.96.67,3.06,2.2,5.02,2.87-1.36,3.28-5.93.54-5.02-2.87h0Z"/>
  <path class="st5" d="M646.69,435.77c.8.15,1.12.8,1.43,1.43,5.37.75,5.48-10.31,2.87-12.9-.12,5.13-3.27,7.24-4.3,11.47h0ZM630.93,437.2c.15-.81.8-1.12,1.43-1.43-1.23-4.27-3.54-7.45-5.02-11.47-1.01,4.11-1.96,13.09,3.58,12.9h0ZM636.66,404.96c-11.24.43.08,16.27-3.58,26.51,2.43,2.75,10.6,3.11,12.9,0,1.37-2.96-.85-5.53-.72-9.31.24-6.55,5.84-15-1.43-17.91-4.46,1.04-1.89,9.1-4.3,12.18-.95-3.82-.67-8.89-2.87-11.46h0ZM650.28,408.54c2.4-3.6,5.64-9.27,3.58-15.05h-3.58c-1.42,4.16.33,11.62,0,15.05h0ZM629.5,408.54c-1.84-4.8,1.39-10.37-.72-15.05-8.63.43-2.04,12.85.72,15.05h0ZM635.95,382.03c1.29.93,6.92,1.62,7.17-.72-1.26.18-6.79-1.26-7.17.72h0ZM646.69,381.31c1.21.86,1.02,2.9,0,4.3-1.78.11-2.22-1.13-3.58-1.43-1.45,1.47.29,1.43,1.43,2.15-.74,2.12-4.11,1.62-4.3,4.3,1.02,4.83,9.03,2.64,11.46.72,3.07.51,4.96,2.2,6.45,4.3-5.09,13.64-1.01,33.85-7.88,44.42-8.42-.22-13.29-.55-21.5,0-6.42-10.72-2.9-30.82-7.88-44.42,1.4-1.95,3.47-3.22,5.73-4.3,3.13,1.32,10.74,4.54,12.18-.72.11-2.74-2.93-2.33-4.3-3.58-.22-1.65,2.07-.8,2.15-2.15-1.31-1.38-2.43.61-3.58,1.43-5.05-8.13,10.03-7.63,13.62-5.02h0Z"/>
  <path class="st5" d="M663.17,379.88c-1.12,2.04-3.03,6.11-5.73,4.3.61-2.74,3.24-3.45,5.73-4.3h0Z"/>
  <path class="st5" d="M622.33,383.46c.91,1,3.78.04,2.87,2.87-1.82-.09-2.78-1.04-2.87-2.87h0Z"/>
  <path class="st5" d="M620.18,387.76c-2.57.42-3.47-.83-5.02-1.43.57-2.66,5.36-1.13,5.02,1.43h0Z"/>
  <path class="st5" d="M663.89,385.61c-.72,1.67-2.47,2.31-5.02,2.15-.13-2.53,3.41-3.55,5.02-2.15h0Z"/>
  <path class="st5" d="M621.62,386.33c1.78-.11,2.22,1.13,3.58,1.43-.56,1.65-4.44.7-3.58-1.43h0Z"/>
  <path class="st5" d="M657.44,386.33c.33,2.24-1.53,2.29-3.58,2.15.5-1.42,1.91-1.91,3.58-2.15h0Z"/>
  <path class="st5" d="M620.9,389.91c.5,2.69-5.42,1.75-4.3-.71.76-.83,3.3-.26,4.3.71h0Z"/>
  <path class="st5" d="M661.03,388.48c.88.31,1.47.92,1.43,2.15-.5.56-4,1.6-4.3,0-1.15-2.82,3.09-.25,2.87-2.15h0Z"/>
  <path class="st5" d="M647.41,442.22c-1.64,3.34-12.41,2.87-15.05.72,3.88-2.43,9.98-1.01,15.05-.72h0Z"/>
  <path class="st5" d="M619.47,377.73c-4.59-6.86-15.34-2.53-15.05,5.73,2.28-.11,3.15-1.63,5.73-1.43-.47,1.49-4.11,3.47-2.15,5.02.09-1.58,3.04-.3,4.3-.72-.4,2.22-3.37,1.88-3.58,4.3,1.48.43,4.71-.89,5.02.72-2.36.27-3.58,1.67-5.02,2.87,2.44.94,5-1.6,5.73,0-1.55,1.08-4.45.8-5.02,2.87,2.58.19,3.45-1.32,5.73-1.43,6.4,6.97,8.06,22.51,7.16,34.39-.51-2.12-.2-5.06-2.15-5.73-.07,1.13.1,2.49-1.43,2.15.73-9.32-.53-16.66-7.16-18.63,7.01,6.36,1.12,21.26,6.45,29.38,3.37.75-1.18-2.42,1.43-2.87,2.06,1.52,1.85,5.31,4.3,6.45.12-1.07-.26-2.64.72-2.87,1.23,5.22,5.93,6.97,8.6,10.75,1.41.22,1.42-.97,2.15-1.43,1.33,1.06,1.07,3.7,3.58,3.58-.89-1.99,2.32-1.99,1.43,0,2.63,0,2.74-2.51,4.3-3.58,1.07,4.39,3.47-5.28,5.02-.72,2.01-2.77,3.33-6.22,5.73-8.6.12,1.07-.26,2.64.72,2.87,1.08-2.26,2.31-4.38,3.58-6.45,1.95-.51-.51,3.38,1.43,2.87,4.01-4.74,1.57-12.16,2.15-18.63.44-4.91,3.56-7.48,3.58-10.75-6.48,2.36-6.29,11.38-7.17,19.35-.99-.44-.11-2.76-1.43-2.87-1.3,1.33-.12,5.14-2.15,5.73,1.19-13.14.75-27.91,8.6-34.39,1.31.19,4.02,2.58,5.02.72-1.29-1.34-4.4-.86-5.02-2.87,1.34.16,4.75,1.85,5.73,0-1.57-1.06-3.86-1.4-5.02-2.86h5.02c.69-2.65-4.89-2.69-2.87-4.3,1.77-.09,3.45-.11,4.3.72.18-2.57-2.15-2.62-2.15-5.02,2.03.12,2.98,1.31,5.01,1.43.06-8.91-10.53-11.99-15.76-5.73-9.86-10.46-29.17-9.24-39.41,0h0ZM655.29,372c2.95.56,1.35-3.43,4.3-2.87.6.83.95,1.92.72,3.58,1.96.52,1.44-1.42,2.87-1.43.1-5.38-10.63-3.82-7.88.72h0ZM615.88,371.28c1.42,0,.91,1.96,2.87,1.43-.11-1.78-.13-3.48,1.43-3.58,2.02.13.89,3.41,3.58,2.87,2.83-4.44-8.2-6.32-7.88-.72h0ZM685.39,394.21c.97,4.05,3.64,6.4,4.3,10.75-2.26-1.09-3.5-3.19-6.45-3.58,1.33,2.98,2.91,9.49,2.15,12.18-1.96-2.58-4.49-4.58-6.45-7.16-1.47,2.35-.39,7.26-.72,10.75-2.76-1.54-3.53-5.07-8.6-4.3-2.93,6.63-.25,18.86-4.3,24.36,3.62-.2,2.49-5.15,5.73-5.73.23,1.68,1.13,2.69.72,5.02,3.53-1.96,3.43-7.56,4.3-12.18,2.58,1.01,3.05,4.12,5.73,5.02.28-1.87.37-3.93,1.43-5.02,1.68.71,1.19,3.59,3.58,3.58.44-1.95-.91-5.69.71-6.45,2,.63,1.7,3.55,4.3,3.58.47-4.78-.95-11.45.72-15.05,3.08,1.94,4.71,5.32,7.88,7.17-.89-21.56-13.14-31.76-21.5-45.86,5.67.41,6.96-3.55,9.31-6.45-6.17-2.82-11.94-.41-14.33,4.3-1.9-.48-3.65-1.13-5.02-2.15.72-1.52,3.7-2.67,2.15-4.3-6.32.11-10.93-1.49-15.05-3.58-3.5,1.51-3.74,6.29-7.88,7.17.1-3.7,2.94-7.75,2.15-10.03h-2.15c-.92,1.74-1.86,7.18-3.58,5.73.54-2.04,2.62-4.91,1.43-6.45-4.34-.51-2.14,5.5-4.3,7.17-.4-3.27,1.27-4.46.72-7.88-2.85.52-2.88.52-5.73,0-1.01,2.97,2.04,5.54,0,7.17-.85-2.5.12-6.81-3.58-6.45-1.86,1.64,2.64,5.59.72,7.17-2.26-1.56-.47-7.17-5.02-6.45-1.27,2.03,3.24,7.52,1.43,10.03-2.97-2.05-3.93-6.1-7.88-7.17-3.04,3.17-9.76,2.66-14.33,4.3-1.83,1.19,2.8,1.92,2.15,4.3-2.62-.47-2.75,1.55-5.02,1.43-2-4.7-9.43-7.71-14.33-3.58,2.74,2.52,4.94,5.57,9.32,6.45-8.81,13.4-20.44,23.99-21.5,45.14,3.45-1.8,4.66-5.85,8.6-7.17v15.05c2.63.44,3.57-4.5,5.02-2.86v5.73c2.42-.21,2.08-3.18,4.3-3.58-.35,2.26,1.29,2.53.72,5.02,2.69-.9,3.16-4.01,5.73-5.02,1.27,4.23.62,10.37,4.3,12.18-.07-2.22.33-3.98,1.43-5.02,2.08,1.5,1.8,5.36,5.02,5.73-4.17-6.81-.66-18.09-4.3-24.36-5.06-1.46-6.5,4.46-8.6,3.58-.46-3.12.93-8.1-.72-10.03-2.24,2.54-4.26,5.29-7.17,7.16,1.02-4,1.43-8.6,2.87-12.18-2.85-.2-5,4.04-6.45,2.87.53-3.55,4.69-7.23,3.58-10.03-.57.71-3.37,2.73-3.58,1.43,6.5-10.22,10.91-22.53,25.08-25.08.15-2.24,1.85-2.93,2.87-4.3-1.04-.39-3.7.84-3.58-.72,6.2-7.53,19.02,9.51,26.51-1.43,3.79,8.12,15.18,1.68,20.06-1.43,2.09.78,4.24,1.49,5.02,3.58-1.04.39-3.7-.84-3.58.72,1.23.92,2.82,1.48,2.87,3.58,14.46,2.49,19.14,14.77,25.08,25.79-1.46-.69-2.83-1.46-4.3-2.15h0ZM619.47,347.64c2.48-.78,4.13,5.41,7.17,6.45,2.03.59,1.86-1.01,3.58-.72.42-2.33-.49-3.33-.72-5.02.96-1.6,1.19,3.53,2.15,4.3,4.24-1.93,11.18-1.86,15.05,0,1.41-.5,1.91-1.91,2.15-3.58,1.66-1.64-.24,2.23,0,3.58,4.65,4.32,7.53-3.36,10.03-5.73.69,1.67-2.6,5.49-4.3,7.17.25.94,1.26,1.13,1.43,2.15,1.74-1.13,3.17-2.56,4.3-4.3,2.38,1.52-2.15,2.08-1.43,4.3,4.47,2.46,10.7,3.15,14.33,6.45,7.38-3.71,16.6-.95,24.36.72-.88,1.03-2.46,1.36-4.3,1.43-.03,1.23.53,1.85,1.43,2.15-1.42,1.21-4.47.78-6.45,1.43.98,2.95-.9,3.37-3.58,5.73,3.06,5.06,8.93,7.31,11.47,12.9-1.5.3-1.9-.49-2.87-.72,5.47,10.77,11.26,21.22,10.03,38.69-3.24-3.45-5.76-7.61-9.31-10.75-1.55,4.42-.17,11.77-1.43,16.48-1.67-.49-1.92-2.38-3.58-2.87.19,4.25-.78,7.34-1.43,10.75-1.4-2.66-1.24-6.88-3.58-8.6-1.83.8.29,5.54-1.43,6.45-1.73-1.37-3.03-3.18-3.58-5.73-4.43,1.78-2.75,9.67-7.88,10.75.29-1.73-1.31-1.56-.72-3.58-3.41,1.13-3.09,5.98-7.17,6.45v-4.3c-2.35.99-3.4,3.29-5.02,5.02-.84-.12-.6-1.31-.72-2.15-1.59.56-1.79,2.5-2.87,3.58-.84-.12-.6-1.31-.72-2.15-8.03,12.09-21.44,12.49-27.95,0-1.23,2.63-3.08.59-3.58-1.43-.97.22-.59,1.79-.72,2.87-2.24-1.35-2.78-4.39-5.02-5.73-1.6.31-.29,3.53-.72,5.02-2.46-1.84-4.75-3.85-5.73-7.17-1.74.41-1.59,2.71-2.15,4.3-2.86-2.88-5.29-6.17-5.73-11.46-3.24.58-3.66,3.98-5.02,6.45-2.5-.37-1.05-4.68-1.43-7.17-2.73,1.33-3.36,4.76-3.58,8.6-1.9-2.16-1.44-6.69-2.15-10.03-.45-1.31-2.99,1.24-2.87,2.87-1.83-4.45-1.71-11.96-1.43-16.48-4.47,1.74-6.31,6.11-9.31,9.31-2.32-14.74,3.33-27.72,9.31-36.54-.22-.97-1.79-.59-2.86-.72,1.22-6.42,19.36-12.42,6.45-15.76.47-.96,1.53-1.33,2.87-1.43-1.64-1.71-4.36-2.33-7.88-2.15,2.69-2.08.39-3.7-2.87-3.58,6.17-2.64,17.32-5.16,23.65-1.43,4.6-2.8,10.54-4.27,15.76-6.45,0-1.42-1.96-.91-1.43-2.87,1.75.4,1.53,2.77,4.3,2.15.92-2.42-2.7-5.69-4.3-7.88h0Z"/>
</svg>